<?xml version="1.0" encoding="iso-8859-1"?>
<!-- Generator: Adobe Illustrator 16.0.0, SVG Export Plug-In . SVG Version: 6.00 Build 0)  -->
<!DOCTYPE svg PUBLIC "-//W3C//DTD SVG 1.1//EN" "http://www.w3.org/Graphics/SVG/1.1/DTD/svg11.dtd">
<svg version="1.1" id="Layer_1" xmlns="http://www.w3.org/2000/svg" xmlns:xlink="http://www.w3.org/1999/xlink" x="0px" y="0px"
	 width="32px" height="25px" viewBox="0 0 32 25" style="enable-background:new 0 0 32 25;" xml:space="preserve">
<g id="Lines_2_">
	<g>
		<path style="fill:#B3B3B3;" d="M0,21v2c0,1,11.667,2,13,2c0-1,1-1,2-1h2c1,0,2,0,2,1c2,0,13-1,13-2v-2H0z"/>
	</g>
</g>
<g id="Front_5_">
	<g>
		<path style="fill:#E6E6E6;" d="M31,4H1C0,9,0,21,0,21v2c0-1,1-2,3-2c4,0,10,2,10,4c0-1,1-1,2-1h2c1,0,2,0,2,1c0-3,6-4,10-4
			c2,0,3,1,3,2v-2C32,21,32,9,31,4z"/>
	</g>
</g>
<g id="Lines_3_">
	<g>
		<path style="fill-rule:evenodd;clip-rule:evenodd;fill:#CCCCCC;" d="M21,4h-2c0,0,1,5,1,11c0,4.733-1.37,7.632-2.258,9.017
			C18.441,24.064,19,24.253,19,25c0-0.897,0.544-1.612,1.403-2.178C21.184,21.205,22,18.651,22,15C22,9,21,4,21,4z M13,4h-2
			c0,0-1,5-1,11c0,4.209,1.083,6.962,1.948,8.496C12.602,23.975,13,24.487,13,25c0-0.747,0.559-0.936,1.258-0.983
			C13.37,22.632,12,19.733,12,15C12,9,13,4,13,4z"/>
	</g>
</g>
<g id="Weist_Band">
	<g>
		<path style="fill:#CCCCCC;" d="M30,0H2C1.448,0,1,0.447,1,1v3h30V1C31,0.447,30.552,0,30,0z"/>
	</g>
</g>
<g>
</g>
<g>
</g>
<g>
</g>
<g>
</g>
<g>
</g>
<g>
</g>
<g>
</g>
<g>
</g>
<g>
</g>
<g>
</g>
<g>
</g>
<g>
</g>
<g>
</g>
<g>
</g>
<g>
</g>
</svg>
