<?xml version="1.0" encoding="iso-8859-1"?>
<!-- Generator: Adobe Illustrator 16.0.0, SVG Export Plug-In . SVG Version: 6.00 Build 0)  -->
<!DOCTYPE svg PUBLIC "-//W3C//DTD SVG 1.1//EN" "http://www.w3.org/Graphics/SVG/1.1/DTD/svg11.dtd">
<svg version="1.1" id="Layer_1" xmlns="http://www.w3.org/2000/svg" xmlns:xlink="http://www.w3.org/1999/xlink" x="0px" y="0px"
	 width="64px" height="28px" viewBox="0 0 64 28" style="enable-background:new 0 0 64 28;" xml:space="preserve">
<g id="Tongue_6_">
	<g>
		<path style="fill:#666666;" d="M30,0c-2,0-8,2.001-8,4c0,2,2,2,2,2l28,8C52,14,34,0,30,0z"/>
	</g>
</g>
<g id="Upper_7_">
	<g>
		<path style="fill:#E6E6E6;" d="M50,12C38,6,32,2.001,30,2.001S26,4,24,6s-6,4-10,4S6,2.001,4,2.001S0,10,0,16v8l54-2
			C54,22,54,14,50,12z"/>
	</g>
</g>
<g id="Stripes">
	<g>
		<path style="fill:#666666;" d="M34,8L22,22h4L36.8,9.4L34,8z M45.199,13.601L38,22h4l6-7L45.199,13.601z M39.6,10.8L30,22h4
			l8.399-9.8L39.6,10.8z"/>
	</g>
</g>
<g id="Design_5_">
	<g>
		<path style="fill-rule:evenodd;clip-rule:evenodd;fill:#666666;" d="M0.26,11.966C1.985,11.789,2.098,10,4,10c4,0,4,2,8,2
			c2,0,2-2,2-2c-4,0-8-7.999-10-7.999C2.429,2.001,0.862,6.939,0.26,11.966z"/>
	</g>
</g>
<g id="Sole_6_">
	<g>
		<path style="fill-rule:evenodd;clip-rule:evenodd;fill:#CCCCCC;" d="M58,14c-2,0-4,0-8-2c2.896,1.448,3.692,6.028,3.913,8.454
			C50.59,21.281,46.102,22,40,22c-4,0-36.571,0-38,0c-2,0-2,0-2,2c0,0.593,0,0.966,0,2c0,2,0,2,2,2c1.138,0,32,0,38,0
			c14,0,24-4,24-6C64,16.001,62,14,58,14z"/>
	</g>
</g>
<g>
</g>
<g>
</g>
<g>
</g>
<g>
</g>
<g>
</g>
<g>
</g>
<g>
</g>
<g>
</g>
<g>
</g>
<g>
</g>
<g>
</g>
<g>
</g>
<g>
</g>
<g>
</g>
<g>
</g>
</svg>
