<?xml version="1.0" encoding="iso-8859-1"?>
<!-- Generator: Adobe Illustrator 16.0.0, SVG Export Plug-In . SVG Version: 6.00 Build 0)  -->
<!DOCTYPE svg PUBLIC "-//W3C//DTD SVG 1.1//EN" "http://www.w3.org/Graphics/SVG/1.1/DTD/svg11.dtd">
<svg version="1.1" id="Layer_1" xmlns="http://www.w3.org/2000/svg" xmlns:xlink="http://www.w3.org/1999/xlink" x="0px" y="0px"
	 width="64px" height="48.001px" viewBox="0 0 64 48.001" style="enable-background:new 0 0 64 48.001;" xml:space="preserve">
<g id="Bedge">
	<g>
		<path style="fill:#CCCCCC;" d="M60,4.001H4c-2.209,0-4,1.791-4,4v36c0,2.209,1.791,4,4,4h56c2.209,0,4-1.791,4-4v-36
			C64,5.792,62.209,4.001,60,4.001z"/>
	</g>
</g>
<g id="Container">
	<g>
		<path style="fill:#FFFFFF;" d="M58,8H6c-1.104,0-2,0.896-2,2v32c0,1.104,0.896,2,2,2h52c1.104,0,2-0.896,2-2V10
			C60,8.896,59.104,8,58,8z"/>
	</g>
</g>
<g id="Clips">
	<g>
		<rect x="20" style="fill:#999999;" width="24" height="8"/>
	</g>
</g>
<g id="Text">
	<g>
		<path style="fill-rule:evenodd;clip-rule:evenodd;fill:#CCCCCC;" d="M50,20H38c-1.104,0-2,0.895-2,2c0,1.104,0.896,2,2,2h12
			c1.104,0,2-0.896,2-2C52,20.895,51.104,20,50,20z M46,27.999h-8c-1.104,0-2,0.896-2,2.001c0,1.104,0.896,2,2,2h8
			c1.104,0,2-0.896,2-2C48,28.895,47.104,27.999,46,27.999z"/>
	</g>
</g>
<g id="User">
	<g>
		<path style="fill:#48A0DC;" d="M24,30v-1.023c1.207-0.912,2-2.347,2-3.978v-4C26,18.238,23.762,16,21,16s-5,2.238-5,4.999v4
			c0,1.631,0.792,3.065,2,3.978V30c0,1-6,1-6,4v2h18v-2C30,31,24,31,24,30z"/>
	</g>
</g>
<g>
</g>
<g>
</g>
<g>
</g>
<g>
</g>
<g>
</g>
<g>
</g>
<g>
</g>
<g>
</g>
<g>
</g>
<g>
</g>
<g>
</g>
<g>
</g>
<g>
</g>
<g>
</g>
<g>
</g>
</svg>
