<?xml version="1.0" encoding="iso-8859-1"?>
<!-- Generator: Adobe Illustrator 16.0.0, SVG Export Plug-In . SVG Version: 6.00 Build 0)  -->
<!DOCTYPE svg PUBLIC "-//W3C//DTD SVG 1.1//EN" "http://www.w3.org/Graphics/SVG/1.1/DTD/svg11.dtd">
<svg version="1.1" id="Layer_1" xmlns="http://www.w3.org/2000/svg" xmlns:xlink="http://www.w3.org/1999/xlink" x="0px" y="0px"
	 width="64px" height="64.001px" viewBox="0 0 64 64.001" style="enable-background:new 0 0 64 64.001;" xml:space="preserve">
<g id="Ends">
	<g>
		<path style="fill:#CCCCCC;" d="M40,6.001c-2,0-4,4-8,4l-22,22c0,4-4,6-4,8s16,18,18,18s4-4,8-4l22-22c0-4,4-6.001,4-8
			C58,22.001,42,6.001,40,6.001z"/>
	</g>
</g>
<g id="Strap_21_">
	<g>
		<path style="fill:#A67C52;" d="M52,0c-2,0-2,0-4,2.001l-46,46c-2,2-2,2-2,4s10,12,12,12s2,0,4-2L62,16c2-2,2-2,2-4S54,0,52,0z"/>
	</g>
</g>
<g id="Case_1_">
	<g>
		<path style="fill-rule:evenodd;clip-rule:evenodd;fill:#CCCCCC;" d="M54,32.001c0-12.15-9.85-22-22-22s-22,9.85-22,22
			s9.85,22,22,22c4.773,0,9.187-1.524,12.792-4.107C46.319,51.171,47.515,52,48,52c1,0,4-3,4-4c0-0.485-0.829-1.681-2.106-3.208
			C52.476,41.188,54,36.773,54,32.001z"/>
	</g>
</g>
<g id="Dial_1_">
	<g>
		<circle style="fill:#FFFFFF;" cx="32" cy="32.001" r="18"/>
	</g>
</g>
<g id="Axe_1_">
	<g>
		<circle style="fill:#CCCCCC;" cx="32" cy="32.001" r="4"/>
	</g>
</g>
<g id="Hands_1_">
	<g>
		<path style="fill-rule:evenodd;clip-rule:evenodd;fill:#999999;" d="M46,30.001H32.939l-5.409-5.408
			c-0.812-0.812-2.127-0.812-2.938,0s-0.812,2.127,0,2.938l5.877,5.877c0.448,0.448,1.049,0.64,1.635,0.593H46c1.104,0,2-0.896,2-2
			C48,30.896,47.104,30.001,46,30.001z"/>
	</g>
</g>
<g>
</g>
<g>
</g>
<g>
</g>
<g>
</g>
<g>
</g>
<g>
</g>
<g>
</g>
<g>
</g>
<g>
</g>
<g>
</g>
<g>
</g>
<g>
</g>
<g>
</g>
<g>
</g>
<g>
</g>
</svg>
