<?xml version="1.0" encoding="iso-8859-1"?>
<!-- Generator: Adobe Illustrator 16.0.0, SVG Export Plug-In . SVG Version: 6.00 Build 0)  -->
<!DOCTYPE svg PUBLIC "-//W3C//DTD SVG 1.1//EN" "http://www.w3.org/Graphics/SVG/1.1/DTD/svg11.dtd">
<svg version="1.1" id="Layer_1" xmlns="http://www.w3.org/2000/svg" xmlns:xlink="http://www.w3.org/1999/xlink" x="0px" y="0px"
	 width="52px" height="64px" viewBox="0 0 52 64" style="enable-background:new 0 0 52 64;" xml:space="preserve">
<g id="Lock">
	<g>
		<path style="fill-rule:evenodd;clip-rule:evenodd;fill:#CCCCCC;" d="M26,0C14.953,0,6,8.955,6,20v10h2.697
			c3.46,5.971,9.904,9.998,17.303,9.998c7.397,0,13.842-4.027,17.302-9.998H46V20C46,8.955,37.045,0,26,0z M38,30h-5.375
			c-1.898,1.26-4.175,1.998-6.625,1.998S21.273,31.26,19.375,30H14V20c0-6.625,5.373-12,12-12s12,5.375,12,12V30z"/>
	</g>
</g>
<g id="Heart_3_">
	<g>
		<path style="fill-rule:evenodd;clip-rule:evenodd;fill:#ED7161;" d="M52,33.992C52,26.266,45.73,20,38,20
			c-5.103,0-9.554,2.736-12,6.813C23.553,22.736,19.102,20,14,20C6.268,20,0,26.266,0,33.992c0,3.865,1.568,7.365,4.104,9.898
			l-0.01,0.004l18.451,18.098h0.006C23.242,63.188,24.521,64,26,64s2.758-0.813,3.449-2.008h0.006l18.451-18.098l-0.01-0.004
			C50.432,41.357,52,37.857,52,33.992z"/>
	</g>
</g>
<g id="Keyhole">
	<g>
		<path style="fill-rule:evenodd;clip-rule:evenodd;fill:#FFFFFF;" d="M32,37.998c0-3.313-2.688-6-6-6c-3.314,0-6,2.688-6,6
			c0,2.607,1.675,4.807,4,5.633v4.371c0,1.105,0.895,2,2,2c1.104,0,2-0.895,2-2v-4.371C30.324,42.803,32,40.605,32,37.998z"/>
	</g>
</g>
<g>
</g>
<g>
</g>
<g>
</g>
<g>
</g>
<g>
</g>
<g>
</g>
<g>
</g>
<g>
</g>
<g>
</g>
<g>
</g>
<g>
</g>
<g>
</g>
<g>
</g>
<g>
</g>
<g>
</g>
</svg>
