<?xml version="1.0" encoding="iso-8859-1"?>
<!-- Generator: Adobe Illustrator 16.0.0, SVG Export Plug-In . SVG Version: 6.00 Build 0)  -->
<!DOCTYPE svg PUBLIC "-//W3C//DTD SVG 1.1//EN" "http://www.w3.org/Graphics/SVG/1.1/DTD/svg11.dtd">
<svg version="1.1" id="Layer_1" xmlns="http://www.w3.org/2000/svg" xmlns:xlink="http://www.w3.org/1999/xlink" x="0px" y="0px"
	 width="64px" height="56px" viewBox="0 0 64 56" style="enable-background:new 0 0 64 56;" xml:space="preserve">
<g id="Strap_16_">
	<g>
		<path style="fill-rule:evenodd;clip-rule:evenodd;fill:#ED7161;" d="M54,40c-2,0-3.105,0.211-4,2c-2,4-8,12-8,12h8
			c0,0,6-9.999,6-12C56,40,56,40,54,40z M35.95,6.563c0.278-1.045-0.339-2.119-1.379-2.399L10,0C10,0,0,6,0,16h6c0,0-2-8,4-12
			l23.563,3.949C34.603,8.229,35.672,7.608,35.95,6.563z M46,36c-2,0-2.586,0.586-4,2c-4,4-14,14-14,14l8,2c0,0,12-14,12-16
			S48,36,46,36z"/>
	</g>
</g>
<g id="Buckle_12_">
	<g>
		<path style="fill:#999999;" d="M29.956,2.868l-4.994-0.897c-1.379-0.249-2.702,0.706-2.956,2.131
			c-0.253,1.426,0.659,2.782,2.038,3.03l4.993,0.897c1.38,0.248,2.703-0.706,2.956-2.131C32.247,4.473,31.335,3.116,29.956,2.868z"
			/>
	</g>
</g>
<g id="Shoe_26_">
	<g>
		<path style="fill:#666666;" d="M60,50c-2,0-6,2-26,2c-2,0-6.845-11.478-14-24C12,14,4,14,2,14s-2,0-2,2c0,1.688,0,2,0,2s6,8,6,36
			c0,1.104,0.895,2,2,2c1.104,0,2-0.896,2-2V30c0-2,0-4,2-4c1.188,0,2.992,2.272,4,4c14,24,10,26,16,26c22,0,32-2,32-4S62,50,60,50z
			"/>
	</g>
</g>
<g>
</g>
<g>
</g>
<g>
</g>
<g>
</g>
<g>
</g>
<g>
</g>
<g>
</g>
<g>
</g>
<g>
</g>
<g>
</g>
<g>
</g>
<g>
</g>
<g>
</g>
<g>
</g>
<g>
</g>
</svg>
