<?xml version="1.0" encoding="iso-8859-1"?>
<!-- Generator: Adobe Illustrator 16.0.0, SVG Export Plug-In . SVG Version: 6.00 Build 0)  -->
<!DOCTYPE svg PUBLIC "-//W3C//DTD SVG 1.1//EN" "http://www.w3.org/Graphics/SVG/1.1/DTD/svg11.dtd">
<svg version="1.1" id="Layer_1" xmlns="http://www.w3.org/2000/svg" xmlns:xlink="http://www.w3.org/1999/xlink" x="0px" y="0px"
	 width="64px" height="40px" viewBox="0 0 64 40" style="enable-background:new 0 0 64 40;" xml:space="preserve">
<g id="Body_37_">
	<g>
		<path style="fill:#B3B3B3;" d="M60,0H4C1.791,0,0,1.791,0,4v32c0,2.209,1.791,4,4,4h56c2.209,0,4-1.791,4-4V4
			C64,1.791,62.209,0,60,0z"/>
	</g>
</g>
<g id="Keys">
	<g>
		<path style="fill-rule:evenodd;clip-rule:evenodd;fill:#FFFFFF;" d="M10,4H6C4.896,4,4,4.896,4,6v4c0,1.104,0.896,2,2,2h4
			c1.104,0,2-0.896,2-2V6C12,4.896,11.104,4,10,4z M18,12h4c1.104,0,2-0.896,2-2V6c0-1.104-0.896-2-2-2h-4c-1.104,0-2,0.896-2,2v4
			C16,11.104,16.896,12,18,12z M30,12h4c1.104,0,2-0.896,2-2V6c0-1.104-0.896-2-2-2h-4c-1.104,0-2,0.896-2,2v4
			C28,11.104,28.896,12,30,12z M42,12h4c1.104,0,2-0.896,2-2V6c0-1.104-0.896-2-2-2h-4c-1.104,0-2,0.896-2,2v4
			C40,11.104,40.896,12,42,12z M58,4h-4c-1.104,0-2,0.896-2,2v4c0,1.104,0.896,2,2,2h4c1.104,0,2-0.896,2-2V6
			C60,4.896,59.104,4,58,4z M10,16.001H6c-1.104,0-2,0.895-2,1.999v4c0,1.104,0.896,2,2,2h4c1.104,0,2-0.896,2-2v-4
			C12,16.896,11.104,16.001,10,16.001z M18,24h4c1.104,0,2-0.896,2-2v-4c0-1.104-0.896-1.999-2-1.999h-4c-1.104,0-2,0.895-2,1.999v4
			C16,23.104,16.896,24,18,24z M30,24h4c1.104,0,2-0.896,2-2v-4c0-1.104-0.896-1.999-2-1.999h-4c-1.104,0-2,0.895-2,1.999v4
			C28,23.104,28.896,24,30,24z M58,16.001H42c-1.104,0-2,0.895-2,1.999v4c0,1.104,0.896,2,2,2h16c1.104,0,2-0.896,2-2v-4
			C60,16.896,59.104,16.001,58,16.001z M10,28H6c-1.104,0-2,0.896-2,2v4c0,1.104,0.896,2,2,2h4c1.104,0,2-0.896,2-2v-4
			C12,28.896,11.104,28,10,28z M46,28H18c-1.104,0-2,0.896-2,2v4c0,1.104,0.896,2,2,2h28c1.104,0,2-0.896,2-2v-4
			C48,28.896,47.104,28,46,28z M58,28h-4c-1.104,0-2,0.896-2,2v4c0,1.104,0.896,2,2,2h4c1.104,0,2-0.896,2-2v-4
			C60,28.896,59.104,28,58,28z"/>
	</g>
</g>
<g>
</g>
<g>
</g>
<g>
</g>
<g>
</g>
<g>
</g>
<g>
</g>
<g>
</g>
<g>
</g>
<g>
</g>
<g>
</g>
<g>
</g>
<g>
</g>
<g>
</g>
<g>
</g>
<g>
</g>
</svg>
