<?xml version="1.0" encoding="iso-8859-1"?>
<!-- Generator: Adobe Illustrator 16.0.0, SVG Export Plug-In . SVG Version: 6.00 Build 0)  -->
<!DOCTYPE svg PUBLIC "-//W3C//DTD SVG 1.1//EN" "http://www.w3.org/Graphics/SVG/1.1/DTD/svg11.dtd">
<svg version="1.1" id="Layer_1" xmlns="http://www.w3.org/2000/svg" xmlns:xlink="http://www.w3.org/1999/xlink" x="0px" y="0px"
	 width="64px" height="56px" viewBox="0 0 64 56" style="enable-background:new 0 0 64 56;" xml:space="preserve">
<g id="Clips">
	<g>
		<path style="fill-rule:evenodd;clip-rule:evenodd;fill:#666666;" d="M50,10.001h-7.062l-3.686-3.686
			C39.719,5.661,40,4.866,40,4.001C40,1.791,38.209,0,36,0s-4,1.791-4,4.001c0,1.818,1.221,3.335,2.883,3.821l2.179,2.179H26.92
			l2.17-2.17C30.766,7.354,32,5.829,32,4.001C32,1.791,30.209,0,28,0s-4,1.791-4,4.001c0,0.869,0.285,1.668,0.755,2.324
			l-3.676,3.676H14c-6.628,0-12,5.372-12,12v4c0,6.627,5.372,12,12,12h36c6.627,0,12-5.373,12-12v-4
			C62,15.373,56.627,10.001,50,10.001z"/>
	</g>
</g>
<g id="Bag_4_">
	<g>
		<path style="fill:#88C057;" d="M54,16H10c0,0-10,16.075-10,28.001C0,54.001,4,56,12,56c6.854,0,33.146,0,40,0
			c8,0,12-1.999,12-11.999C64,32.075,54,16,54,16z"/>
	</g>
</g>
<g id="Shadows">
	<g>
		<path style="fill-rule:evenodd;clip-rule:evenodd;fill:#75A64B;" d="M5.232,40.001C10.631,40.001,14,16,14,16
			S-0.166,40.001,5.232,40.001z M50,16c0,0,3.369,24.001,8.767,24.001C64.165,40.001,50,16,50,16z"/>
	</g>
</g>
<g>
</g>
<g>
</g>
<g>
</g>
<g>
</g>
<g>
</g>
<g>
</g>
<g>
</g>
<g>
</g>
<g>
</g>
<g>
</g>
<g>
</g>
<g>
</g>
<g>
</g>
<g>
</g>
<g>
</g>
</svg>
