<?xml version="1.0" encoding="iso-8859-1"?>
<!-- Generator: Adobe Illustrator 16.0.0, SVG Export Plug-In . SVG Version: 6.00 Build 0)  -->
<!DOCTYPE svg PUBLIC "-//W3C//DTD SVG 1.1//EN" "http://www.w3.org/Graphics/SVG/1.1/DTD/svg11.dtd">
<svg version="1.1" id="Layer_1" xmlns="http://www.w3.org/2000/svg" xmlns:xlink="http://www.w3.org/1999/xlink" x="0px" y="0px"
	 width="60px" height="47.999px" viewBox="0 0 60 47.999" style="enable-background:new 0 0 60 47.999;" xml:space="preserve">
<g id="Signal_4_">
	<g>
		<path style="fill-rule:evenodd;clip-rule:evenodd;fill:#48A0DC;" d="M40,8h-4c-2.209,0-4,1.789-4,4v31.999c0,2.21,1.791,4,4,4h4
			c2.209,0,4-1.79,4-4V12C44,9.789,42.209,8,40,8z M24,15.998h-4c-2.209,0-4,1.792-4,4.001v24c0,2.21,1.791,4,4,4h4
			c2.209,0,4-1.79,4-4v-24C28,17.79,26.209,15.998,24,15.998z M8,23.998H4c-2.209,0-4,1.792-4,4.002v15.999c0,2.21,1.791,4,4,4h4
			c2.209,0,4-1.79,4-4V28C12,25.79,10.209,23.998,8,23.998z"/>
	</g>
</g>
<g id="Signal_5_">
	<g>
		<path style="fill:#CCCCCC;" d="M56,0h-4c-2.209,0-4,1.789-4,4v39.999c0,2.21,1.791,4,4,4h4c2.21,0,4-1.79,4-4V4
			C60,1.789,58.21,0,56,0z"/>
	</g>
</g>
<g>
</g>
<g>
</g>
<g>
</g>
<g>
</g>
<g>
</g>
<g>
</g>
<g>
</g>
<g>
</g>
<g>
</g>
<g>
</g>
<g>
</g>
<g>
</g>
<g>
</g>
<g>
</g>
<g>
</g>
</svg>
