<?xml version="1.0" encoding="iso-8859-1"?>
<!-- Generator: Adobe Illustrator 16.0.0, SVG Export Plug-In . SVG Version: 6.00 Build 0)  -->
<!DOCTYPE svg PUBLIC "-//W3C//DTD SVG 1.1//EN" "http://www.w3.org/Graphics/SVG/1.1/DTD/svg11.dtd">
<svg version="1.1" id="Layer_1" xmlns="http://www.w3.org/2000/svg" xmlns:xlink="http://www.w3.org/1999/xlink" x="0px" y="0px"
	 width="63.995px" height="63.994px" viewBox="0 0 63.995 63.994" style="enable-background:new 0 0 63.995 63.994;"
	 xml:space="preserve">
<g id="USB">
	<g>
		<path style="fill:#CCCCCC;" d="M63.408,17.585L46.409,0.587c-0.782-0.783-2.051-0.783-2.833,0L26.578,17.585
			c-0.782,0.782-0.782,2.051,0,2.833l16.998,16.999c0.782,0.782,2.051,0.782,2.833,0l16.999-16.999
			C64.19,19.636,64.19,18.367,63.408,17.585z"/>
	</g>
</g>
<g id="Line">
	<g>
		
			<rect x="31.001" y="16.976" transform="matrix(0.7071 -0.7071 0.7071 0.7071 -0.2713 37.4105)" style="fill:#B3B3B3;" width="28.046" height="4.113"/>
	</g>
</g>
<g id="Holes_4_">
	<g>
		<path style="fill-rule:evenodd;clip-rule:evenodd;fill:#808080;" d="M42.493,6.625l-1.877,1.877c-0.812,0.812-0.812,2.127,0,2.938
			s2.127,0.812,2.938,0l1.877-1.877c0.812-0.812,0.812-2.127,0-2.938C44.621,5.813,43.305,5.813,42.493,6.625z M57.432,18.625
			c-0.812-0.812-2.127-0.812-2.938,0l-1.877,1.877c-0.812,0.812-0.812,2.127,0,2.939c0.812,0.811,2.127,0.811,2.938,0l1.877-1.878
			C58.243,20.752,58.243,19.437,57.432,18.625z"/>
	</g>
</g>
<g id="Body_35_">
	<g>
		<path style="fill:#F06EAA;" d="M27.544,10.908L5.289,33.163c-7.053,7.054-7.053,18.489,0,25.542
			c7.054,7.053,18.488,7.053,25.542,0l22.255-22.256L27.544,10.908z"/>
	</g>
</g>
<g>
</g>
<g>
</g>
<g>
</g>
<g>
</g>
<g>
</g>
<g>
</g>
<g>
</g>
<g>
</g>
<g>
</g>
<g>
</g>
<g>
</g>
<g>
</g>
<g>
</g>
<g>
</g>
<g>
</g>
</svg>
