<?xml version="1.0" encoding="iso-8859-1"?>
<!-- Generator: Adobe Illustrator 16.0.0, SVG Export Plug-In . SVG Version: 6.00 Build 0)  -->
<!DOCTYPE svg PUBLIC "-//W3C//DTD SVG 1.1//EN" "http://www.w3.org/Graphics/SVG/1.1/DTD/svg11.dtd">
<svg version="1.1" id="Layer_1" xmlns="http://www.w3.org/2000/svg" xmlns:xlink="http://www.w3.org/1999/xlink" x="0px" y="0px"
	 width="52px" height="66px" viewBox="0 0 52 66" style="enable-background:new 0 0 52 66;" xml:space="preserve">
<g id="Brain_2_">
	<g>
		<path style="fill-rule:evenodd;clip-rule:evenodd;fill:#F09EC4;" d="M23.832,7.952C23.932,7.651,24,7.335,24,7
			c0-1.656-1.344-3-3-3c-0.625,0-1.203,0.191-1.684,0.519C18.963,4.205,18.51,4,18,4c-1.105,0-2,0.895-2,2c-1.105,0-2,0.895-2,2
			c0,0.031,0.016,0.058,0.018,0.089c-0.189,0.193-0.35,0.412-0.516,0.626C13.135,8.286,12.609,8,12,8c-1.105,0-2,0.895-2,2
			c0,0.178,0.059,0.336,0.102,0.5c-0.184,0.1-0.355,0.208-0.52,0.333C9.217,10.341,8.66,10,8,10c-1.105,0-2,0.895-2,2
			c0,0.178,0.059,0.336,0.102,0.5C4.855,13.178,4,14.482,4,16c0,2.209,1.791,4,4,4c1.498,0,2.789-0.834,3.475-2.053
			C11.648,17.97,11.82,18,12,18c0.629,0,1.217-0.158,1.748-0.418C15.031,19.052,16.896,20,19,20c3.865,0,7-3.135,7-7
			C26,11.011,25.162,9.227,23.832,7.952z"/>
	</g>
</g>
<g id="Head_64_">
	<g>
		<path style="fill-rule:evenodd;clip-rule:evenodd;fill:#88C057;" d="M26,2c-0.842,0-1.672,0.043-2.492,0.114
			C23.811,2.679,24,3.314,24,4c0,2.209-1.791,4-4,4c0,1.104-0.895,2-2,2c0,1.518-0.855,2.822-2.102,3.5
			C15.941,13.664,16,13.822,16,14c0,1.104-0.896,2-2,2c-0.66,0-1.217-0.341-1.582-0.834C11.746,15.682,10.914,16,10,16
			c-0.18,0-0.352-0.03-0.525-0.053C8.789,17.166,7.498,18,6,18c-1.424,0-2.666-0.75-3.375-1.871C0.945,19.601,0,23.6,0,28
			c0,14.725,4,17.813,4,22c0,2.402,6,2,6,6s7.813,10,16,10s16-6,16-10s6-3.598,6-6c0-4.188,4-7.275,4-22C52,12.535,40.359,2,26,2z"
			/>
	</g>
</g>
<g id="Mouth_8_">
	<g>
		<path style="fill:#333333;" d="M26,50c-5.877,0-12,2.582-12,4c0,1.09,0.775,2,2,2c2.766,0,2.785-2,10-2s7.234,2,10,2
			c1.225,0,2-0.91,2-2C38,52.582,31.877,50,26,50z"/>
	</g>
</g>
<g id="Eyelid_2_">
	<g>
		<path style="fill-rule:evenodd;clip-rule:evenodd;fill:#638C3F;" d="M36,30c3.199,0,6.014,0.611,7.844,1.546
			C43.941,31.045,44,30.529,44,30c0-4.418-3.582-8-8-8s-8,3.582-8,8c0,0.529,0.059,1.045,0.156,1.546C29.986,30.611,32.801,30,36,30
			z"/>
	</g>
</g>
<g id="Eyes_22_">
	<g>
		<path style="fill-rule:evenodd;clip-rule:evenodd;fill:#FFD57F;" d="M36,30c-3.199,0-6.014,0.611-7.844,1.546
			C28.877,35.224,32.111,38,36,38s7.123-2.776,7.844-6.454C42.014,30.611,39.199,30,36,30z M16,22c-4.418,0-8,3.582-8,8s3.582,8,8,8
			s8-3.582,8-8S20.418,22,16,22z"/>
	</g>
</g>
<g id="Pupil_4_">
	<g>
		<circle style="fill:#333333;" cx="16" cy="30" r="2"/>
	</g>
</g>
<g id="Nose_20_">
	<g>
		<path style="fill-rule:evenodd;clip-rule:evenodd;fill:#333333;" d="M22,40c-1.105,0-2,0.895-2,2c0,1.104,0.895,2,2,2s2-0.896,2-2
			C24,40.895,23.105,40,22,40z M30,40c-1.105,0-2,0.895-2,2c0,1.104,0.895,2,2,2s2-0.896,2-2C32,40.895,31.105,40,30,40z"/>
	</g>
</g>
<g id="Teeth_6_">
	<g>
		<path style="fill-rule:evenodd;clip-rule:evenodd;fill:#FFD57F;" d="M20,48c-1.105,0-2,0.895-2,2v2c0,1.104,0.895,2,2,2
			s2-0.896,2-2v-2C22,48.895,21.105,48,20,48z M26,50c-1.105,0-2,0.895-2,2v2c0,1.104,0.895,2,2,2s2-0.896,2-2v-2
			C28,50.895,27.105,50,26,50z M34,48c-1.105,0-2,0.895-2,2v2c0,1.104,0.895,2,2,2s2-0.896,2-2v-2C36,48.895,35.105,48,34,48z"/>
	</g>
</g>
<g>
</g>
<g>
</g>
<g>
</g>
<g>
</g>
<g>
</g>
<g>
</g>
<g>
</g>
<g>
</g>
<g>
</g>
<g>
</g>
<g>
</g>
<g>
</g>
<g>
</g>
<g>
</g>
<g>
</g>
</svg>
