<?xml version="1.0" encoding="iso-8859-1"?>
<!-- Generator: Adobe Illustrator 16.0.0, SVG Export Plug-In . SVG Version: 6.00 Build 0)  -->
<!DOCTYPE svg PUBLIC "-//W3C//DTD SVG 1.1//EN" "http://www.w3.org/Graphics/SVG/1.1/DTD/svg11.dtd">
<svg version="1.1" id="Layer_1" xmlns="http://www.w3.org/2000/svg" xmlns:xlink="http://www.w3.org/1999/xlink" x="0px" y="0px"
	 width="32px" height="37px" viewBox="0 0 32 37" style="enable-background:new 0 0 32 37;" xml:space="preserve">
<g id="Cable_18_">
	<g>
		<path style="fill:#CCCCCC;" d="M17,32h-2c-0.552,0-1,0.447-1,1v3c0,0.552,0.448,1,1,1h2c0.552,0,1-0.448,1-1v-3
			C18,32.447,17.552,32,17,32z"/>
	</g>
</g>
<g id="Cable_19_">
	<g>
		<path style="fill:#B3B3B3;" d="M18,28h-4c-0.552,0-1,0.447-1,1v3c0,0.552,0.448,1,1,1h4c0.552,0,1-0.448,1-1v-3
			C19,28.447,18.552,28,18,28z"/>
	</g>
</g>
<g id="Body_21_">
	<g>
		<path style="fill:#CCCCCC;" d="M30,10H2c-1.104,0-2,0.895-2,2v16c0,1.104,0.896,1.999,2,1.999h28c1.104,0,2-0.895,2-1.999V12
			C32,10.895,31.104,10,30,10z"/>
	</g>
</g>
<g id="Body_22_">
	<g>
		<path style="fill:#FFFFFF;" d="M29,12H3c-0.552,0-1,0.447-1,1v14c0,0.552,0.448,1,1,1h26c0.552,0,1-0.448,1-1V13
			C30,12.447,29.552,12,29,12z"/>
	</g>
</g>
<g id="Symbol_1_">
	<g>
		<path style="fill-rule:evenodd;clip-rule:evenodd;fill:#CCCCCC;" d="M20,18h-8c-0.552,0-1,0.447-1,1v3
			c0,0.552,0.448,0.999,1,0.999h8c0.552,0,1-0.447,1-0.999v-3C21,18.447,20.552,18,20,18z M20,22h-8v-3h8V22z M13.5,21h5
			c0.276,0,0.5-0.225,0.5-0.5c0-0.276-0.224-0.5-0.5-0.5h-5c-0.276,0-0.5,0.224-0.5,0.5C13,20.775,13.224,21,13.5,21z"/>
	</g>
</g>
<g id="Plug_4_">
	<g>
		<path style="fill-rule:evenodd;clip-rule:evenodd;fill:#B3B3B3;" d="M27,5H5C4.447,5,4,5.447,4,6v4h24V6C28,5.447,27.552,5,27,5z"
			/>
	</g>
</g>
<g id="Pins_7_">
	<g>
		<path style="fill-rule:evenodd;clip-rule:evenodd;fill:#8C8C8C;" d="M8,7c0,0.552,0.448,1,1,1s1-0.448,1-1V5H8V7z M22,5v2
			c0,0.552,0.448,1,1,1s1-0.448,1-1V5H22z"/>
	</g>
</g>
<g>
</g>
<g>
</g>
<g>
</g>
<g>
</g>
<g>
</g>
<g>
</g>
<g>
</g>
<g>
</g>
<g>
</g>
<g>
</g>
<g>
</g>
<g>
</g>
<g>
</g>
<g>
</g>
<g>
</g>
</svg>
