<?xml version="1.0" encoding="iso-8859-1"?>
<!-- Generator: Adobe Illustrator 16.0.0, SVG Export Plug-In . SVG Version: 6.00 Build 0)  -->
<!DOCTYPE svg PUBLIC "-//W3C//DTD SVG 1.1//EN" "http://www.w3.org/Graphics/SVG/1.1/DTD/svg11.dtd">
<svg version="1.1" id="Layer_1" xmlns="http://www.w3.org/2000/svg" xmlns:xlink="http://www.w3.org/1999/xlink" x="0px" y="0px"
	 width="32px" height="22px" viewBox="0 0 32 22" style="enable-background:new 0 0 32 22;" xml:space="preserve">
<g id="Straps_2_">
	<g>
		<path style="fill-rule:evenodd;clip-rule:evenodd;fill:#D46557;" d="M4,0C3.447,0,3,0.447,3,1v12c0,0.552,0.447,1,1,1
			c0.552,0,1-0.448,1-1V1C5,0.447,4.552,0,4,0z M28,0c-0.553,0-1,0.447-1,1v12c0,0.552,0.447,1,1,1c0.552,0,1-0.448,1-1V1
			C29,0.447,28.552,0,28,0z"/>
	</g>
</g>
<g id="Base">
	<g>
		<path style="fill-rule:evenodd;clip-rule:evenodd;fill:#D46557;" d="M31,14l-14,1h-1h-1L1,14l-1,1v5c0,0,2,0,3,0s2,2,5,2
			c6,0,8-3,8-3s2,3,8,3c3,0,4-2,5-2s3,0,3,0v-5L31,14z"/>
	</g>
</g>
<g id="Cups">
	<g>
		<path style="fill-rule:evenodd;clip-rule:evenodd;fill:#ED7161;" d="M0,14c0,0,1,8,6,8c6,0,10-6,10-6C12,12,4,9,4,9
			C4,11,0,14,0,14z M28,9c0,0-8,3-12,7c0,0,4,6,10,6c5,0,6-8,6-8S28,11,28,9z"/>
	</g>
</g>
<g>
</g>
<g>
</g>
<g>
</g>
<g>
</g>
<g>
</g>
<g>
</g>
<g>
</g>
<g>
</g>
<g>
</g>
<g>
</g>
<g>
</g>
<g>
</g>
<g>
</g>
<g>
</g>
<g>
</g>
</svg>
