<?xml version="1.0" encoding="iso-8859-1"?>
<!-- Generator: Adobe Illustrator 16.0.0, SVG Export Plug-In . SVG Version: 6.00 Build 0)  -->
<!DOCTYPE svg PUBLIC "-//W3C//DTD SVG 1.1//EN" "http://www.w3.org/Graphics/SVG/1.1/DTD/svg11.dtd">
<svg version="1.1" id="Layer_1" xmlns="http://www.w3.org/2000/svg" xmlns:xlink="http://www.w3.org/1999/xlink" x="0px" y="0px"
	 width="64px" height="64px" viewBox="0 0 64 64" style="enable-background:new 0 0 64 64;" xml:space="preserve">
<g id="Body_47_">
	<g>
		<path style="fill:#E6E6E6;" d="M60,0H4C1.791,0,0,1.791,0,4v56.001C0,62.21,1.791,64,4,64h56c2.209,0,4-1.79,4-3.999V4
			C64,1.791,62.209,0,60,0z"/>
	</g>
</g>
<g id="Apple_Logo_3_">
	<g>
		<path style="fill-rule:evenodd;clip-rule:evenodd;fill:#4D4D4D;" d="M34.989,25.022c0.771-0.808,1.293-1.93,1.151-3.048
			c-1.112,0.039-2.459,0.638-3.256,1.444c-0.716,0.716-1.341,1.858-1.174,2.954C32.952,26.456,34.217,25.828,34.989,25.022z
			 M37.355,32.744c-0.023-2.507,2.029-3.711,2.122-3.77c-1.154-1.702-2.952-1.935-3.592-1.961c-1.53-0.157-2.985,0.907-3.762,0.907
			c-0.773,0-1.972-0.887-3.241-0.862c-1.667,0.026-3.204,0.977-4.063,2.482c-1.732,3.029-0.444,7.519,1.245,9.976
			c0.825,1.203,1.809,2.553,3.1,2.503c1.245-0.048,1.716-0.811,3.219-0.811c1.504,0,1.927,0.811,3.242,0.786
			c1.338-0.023,2.187-1.226,3.006-2.432c0.947-1.396,1.337-2.746,1.36-2.814C39.963,36.733,37.383,35.739,37.355,32.744z"/>
	</g>
</g>
<g>
</g>
<g>
</g>
<g>
</g>
<g>
</g>
<g>
</g>
<g>
</g>
<g>
</g>
<g>
</g>
<g>
</g>
<g>
</g>
<g>
</g>
<g>
</g>
<g>
</g>
<g>
</g>
<g>
</g>
</svg>
