<?xml version="1.0" encoding="iso-8859-1"?>
<!-- Generator: Adobe Illustrator 16.0.0, SVG Export Plug-In . SVG Version: 6.00 Build 0)  -->
<!DOCTYPE svg PUBLIC "-//W3C//DTD SVG 1.1//EN" "http://www.w3.org/Graphics/SVG/1.1/DTD/svg11.dtd">
<svg version="1.1" id="Layer_1" xmlns="http://www.w3.org/2000/svg" xmlns:xlink="http://www.w3.org/1999/xlink" x="0px" y="0px"
	 width="64px" height="50px" viewBox="0 0 64 50" style="enable-background:new 0 0 64 50;" xml:space="preserve">
<g id="Lines_2_">
	<g>
		<path style="fill:#B3B3B3;" d="M0,42v4c0,2,23.333,4,26,4c0-2,2-2,4-2h4c2,0,4,0,4,2c4,0,26-2,26-4v-4H0z"/>
	</g>
</g>
<g id="Front_5_">
	<g>
		<path style="fill:#E6E6E6;" d="M62,8H2C0,18,0,42,0,42v4c0-2,2-4,6-4c8,0,20,4,20,8c0-2,2-2,4-2h4c2,0,4,0,4,2c0-6,12-8,20-8
			c4,0,6,2,6,4v-4C64,42,64,18,62,8z"/>
	</g>
</g>
<g id="Lines_3_">
	<g>
		<path style="fill-rule:evenodd;clip-rule:evenodd;fill:#CCCCCC;" d="M42,8h-4c0,0,2,10,2,22c0,9.466-2.74,15.264-4.517,18.033
			C36.883,48.128,38,48.505,38,50c0-1.8,1.085-3.238,2.814-4.372C42.374,42.394,44,37.291,44,30C44,18,42,8,42,8z M26,8h-4
			c0,0-2,10-2,22c0,8.412,2.163,13.917,3.892,16.986C25.205,47.946,26,48.973,26,50c0-1.495,1.117-1.872,2.517-1.967
			C26.74,45.264,24,39.466,24,30C24,18,26,8,26,8z"/>
	</g>
</g>
<g id="Weist_Band">
	<g>
		<path style="fill:#CCCCCC;" d="M60,0H4C2.896,0,2,0.896,2,2v6h60V2C62,0.896,61.104,0,60,0z"/>
	</g>
</g>
<g>
</g>
<g>
</g>
<g>
</g>
<g>
</g>
<g>
</g>
<g>
</g>
<g>
</g>
<g>
</g>
<g>
</g>
<g>
</g>
<g>
</g>
<g>
</g>
<g>
</g>
<g>
</g>
<g>
</g>
</svg>
