<?xml version="1.0" encoding="iso-8859-1"?>
<!-- Generator: Adobe Illustrator 16.0.0, SVG Export Plug-In . SVG Version: 6.00 Build 0)  -->
<!DOCTYPE svg PUBLIC "-//W3C//DTD SVG 1.1//EN" "http://www.w3.org/Graphics/SVG/1.1/DTD/svg11.dtd">
<svg version="1.1" id="Layer_1" xmlns="http://www.w3.org/2000/svg" xmlns:xlink="http://www.w3.org/1999/xlink" x="0px" y="0px"
	 width="64px" height="44px" viewBox="0 0 64 44" style="enable-background:new 0 0 64 44;" xml:space="preserve">
<g id="Straps_2_">
	<g>
		<path style="fill-rule:evenodd;clip-rule:evenodd;fill:#D46557;" d="M8,0C6.895,0,6,0.895,6,1.999V26c0,1.104,0.895,2,2,2
			c1.104,0,2-0.896,2-2V1.999C10,0.895,9.104,0,8,0z M56,0c-1.105,0-2,0.895-2,1.999V26c0,1.104,0.895,2,2,2c1.104,0,2-0.896,2-2
			V1.999C58,0.895,57.104,0,56,0z"/>
	</g>
</g>
<g id="Base">
	<g>
		<path style="fill-rule:evenodd;clip-rule:evenodd;fill:#D46557;" d="M62,28l-28,1.999h-2h-2L2,28l-2,1.999V40c0,0,4,0,6,0
			s4,4,10,4c12,0,16-6.001,16-6.001S36,44,48,44c6,0,8-4,10-4s6,0,6,0V29.999L62,28z"/>
	</g>
</g>
<g id="Cups">
	<g>
		<path style="fill-rule:evenodd;clip-rule:evenodd;fill:#ED7161;" d="M0,28c0,0,2,16,12,16c12,0,20-12.001,20-12.001
			c-8-7.999-24-14-24-14C8,21.999,0,28,0,28z M56,17.999c0,0-16,6.001-24,14C32,31.999,40,44,52,44c10,0,12-16,12-16
			S56,21.999,56,17.999z"/>
	</g>
</g>
<g>
</g>
<g>
</g>
<g>
</g>
<g>
</g>
<g>
</g>
<g>
</g>
<g>
</g>
<g>
</g>
<g>
</g>
<g>
</g>
<g>
</g>
<g>
</g>
<g>
</g>
<g>
</g>
<g>
</g>
</svg>
