<?xml version="1.0" encoding="iso-8859-1"?>
<!-- Generator: Adobe Illustrator 16.0.0, SVG Export Plug-In . SVG Version: 6.00 Build 0)  -->
<!DOCTYPE svg PUBLIC "-//W3C//DTD SVG 1.1//EN" "http://www.w3.org/Graphics/SVG/1.1/DTD/svg11.dtd">
<svg version="1.1" id="Layer_1" xmlns="http://www.w3.org/2000/svg" xmlns:xlink="http://www.w3.org/1999/xlink" x="0px" y="0px"
	 width="64px" height="48px" viewBox="0 0 64 48" style="enable-background:new 0 0 64 48;" xml:space="preserve">
<g id="Antennas_2_">
	<g>
		<path style="fill-rule:evenodd;clip-rule:evenodd;fill:#999999;" d="M24,0c-1.104,0-2,0.895-2,2c0,1.104,0.896,2,2,2s2,1.791,2,4
			v20h4V8C30,3.582,27.313,0,24,0z M40,0c-3.313,0-6,3.582-6,8v20h4V8c0-2.209,0.896-4,2-4s2-0.896,2-2C42,0.895,41.104,0,40,0z"/>
	</g>
</g>
<g id="Wings_2_">
	<g>
		<path style="fill-rule:evenodd;clip-rule:evenodd;fill:#666666;" d="M64,14c0-8-2-10-10-10C42,4,34,16,34,16v10v2v8
			c0,0,2,12,10,12c1.923,0,8-2,8-10c0-2.383-1.613-4.402-3.855-6.076C48.761,31.969,49.38,32,50,32C58,32,64,22,64,14z M10,4
			C2,4,0,6,0,14s6,18,14,18c0.62,0,1.239-0.031,1.855-0.076C13.613,33.598,12,35.617,12,38c0,8,6.077,10,8,10c8,0,10-12,10-12v-8v-2
			V16C30,16,22,4,10,4z"/>
	</g>
</g>
<g id="Decoration_56_">
	<g>
		<path style="fill-rule:evenodd;clip-rule:evenodd;fill:#FF8833;" d="M34,30c0,0,4,14,10,14c1.923,0,4-2,4-6S34,30,34,30z M16,38
			c0,4,2.077,6,4,6c6,0,10-14,10-14S16,34,16,38z M8,16c0,8,2,12,6,12c8,0,16-4,16-4v-4c0,0-10-8-18-8C10,12,8,14,8,16z M52,12
			c-8,0-18,8-18,8v4c0,0,8,4,16,4c4,0,6-4,6-12C56,14,54,12,52,12z"/>
	</g>
</g>
<g id="Body_64_">
	<g>
		<ellipse style="fill:#666666;" cx="32" cy="28" rx="4" ry="18"/>
	</g>
</g>
<g>
</g>
<g>
</g>
<g>
</g>
<g>
</g>
<g>
</g>
<g>
</g>
<g>
</g>
<g>
</g>
<g>
</g>
<g>
</g>
<g>
</g>
<g>
</g>
<g>
</g>
<g>
</g>
<g>
</g>
</svg>
