<?xml version="1.0" encoding="iso-8859-1"?>
<!-- Generator: Adobe Illustrator 16.0.0, SVG Export Plug-In . SVG Version: 6.00 Build 0)  -->
<!DOCTYPE svg PUBLIC "-//W3C//DTD SVG 1.1//EN" "http://www.w3.org/Graphics/SVG/1.1/DTD/svg11.dtd">
<svg version="1.1" id="Layer_1" xmlns="http://www.w3.org/2000/svg" xmlns:xlink="http://www.w3.org/1999/xlink" x="0px" y="0px"
	 width="60px" height="64.001px" viewBox="0 0 60 64.001" style="enable-background:new 0 0 60 64.001;" xml:space="preserve">
<g id="Blade_Stroke">
	<g>
		<polygon style="fill:#D9D9D9;" points="38,6 0,44.001 0,64.001 48,16 		"/>
	</g>
</g>
<g id="Handle_5_">
	<g>
		<path style="fill-rule:evenodd;clip-rule:evenodd;fill:#FFCC66;" d="M44,0c-0.011,0-0.02,0.001-0.031,0.001h0.05
			C44.013,0.001,44.006,0,44,0z M46,14.001l-32,32h12c0,0,8-8,10-10.001c2-1.999,6-3.999,8-3.999c5.44,0,10.239-2.721,13.129-6.87
			L46,14.001z M34.51,2.511C32.009,4.01,29.996,6.005,28,8.001c-4,4-20,20-20,20l0,18h0v-6l32-32L34.51,2.511z"/>
	</g>
</g>
<g id="Handle_6_">
	<g>
		<path style="fill:#666666;" d="M44.001,0.001h-0.002c-3.973,0-6.977,1.005-9.488,2.511L57.13,25.13
			c1.804-2.589,2.87-5.732,2.87-9.128v-0.003C59.999,7.163,52.836,0.001,44.001,0.001z"/>
	</g>
</g>
<g id="Lock">
	<g>
		
			<rect x="26.929" y="15.758" transform="matrix(0.7072 -0.7071 0.7071 0.7072 -4.1852 29.897)" style="fill:#999999;" width="14.142" height="8.486"/>
	</g>
</g>
<g>
</g>
<g>
</g>
<g>
</g>
<g>
</g>
<g>
</g>
<g>
</g>
<g>
</g>
<g>
</g>
<g>
</g>
<g>
</g>
<g>
</g>
<g>
</g>
<g>
</g>
<g>
</g>
<g>
</g>
</svg>
