<?xml version="1.0" encoding="iso-8859-1"?>
<!-- Generator: Adobe Illustrator 16.0.0, SVG Export Plug-In . SVG Version: 6.00 Build 0)  -->
<!DOCTYPE svg PUBLIC "-//W3C//DTD SVG 1.1//EN" "http://www.w3.org/Graphics/SVG/1.1/DTD/svg11.dtd">
<svg version="1.1" id="Layer_1" xmlns="http://www.w3.org/2000/svg" xmlns:xlink="http://www.w3.org/1999/xlink" x="0px" y="0px"
	 width="64px" height="52.002px" viewBox="0 0 64 52.002" style="enable-background:new 0 0 64 52.002;" xml:space="preserve">
<g id="Nerve_2_">
	<g>
		<path style="fill:#F06EAA;" d="M54,46.002c0-3.469,10-5.246,10-16c0-4.637-5.402-8-8-8c-4.838,0-8-6-8-6V36
			c0,0,1.967-3.998,4-3.998c2.221,0,4,0.461,4,1.998c0,2.391-8,6.262-8,12.002c0,3.814,1.941,6,6,6c4.617,0,10-2.002,10-2.002
			S54,49.52,54,46.002z"/>
	</g>
</g>
<g id="Eye_21_">
	<g>
		<circle style="fill:#CCCCCC;" cx="26" cy="26.001" r="26.001"/>
	</g>
</g>
<g id="Eye_19_">
	<g>
		<circle style="fill:#E6E6E6;" cx="26" cy="26.001" r="22.001"/>
	</g>
</g>
<g id="Iris_2_">
	<g>
		<circle style="fill:#48A0DC;" cx="26" cy="26.002" r="14"/>
	</g>
</g>
<g id="Pupil_6_">
	<g>
		<circle style="fill:#4D4D4D;" cx="26" cy="26.001" r="7.999"/>
	</g>
</g>
<g id="Highlight_2_">
	<g>
		<circle style="fill:#FFFFFF;" cx="32" cy="20.001" r="3.999"/>
	</g>
</g>
<g>
</g>
<g>
</g>
<g>
</g>
<g>
</g>
<g>
</g>
<g>
</g>
<g>
</g>
<g>
</g>
<g>
</g>
<g>
</g>
<g>
</g>
<g>
</g>
<g>
</g>
<g>
</g>
<g>
</g>
</svg>
