<?xml version="1.0" encoding="iso-8859-1"?>
<!-- Generator: Adobe Illustrator 16.0.0, SVG Export Plug-In . SVG Version: 6.00 Build 0)  -->
<!DOCTYPE svg PUBLIC "-//W3C//DTD SVG 1.1//EN" "http://www.w3.org/Graphics/SVG/1.1/DTD/svg11.dtd">
<svg version="1.1" id="Layer_1" xmlns="http://www.w3.org/2000/svg" xmlns:xlink="http://www.w3.org/1999/xlink" x="0px" y="0px"
	 width="60.001px" height="63.999px" viewBox="0 0 60.001 63.999" style="enable-background:new 0 0 60.001 63.999;"
	 xml:space="preserve">
<g id="Cuffs_2_">
	<g>
		<path style="fill-rule:evenodd;clip-rule:evenodd;fill:#638C3F;" d="M14.001,59.999c0,2.001,4,4,16,4s16-1.999,16-4V58h-32V59.999
			z M2.001,62C3.001,62,8,61.063,8,59.999C8,58.938,8,56,8,56l-7.999,2C0.001,58,1,62,2.001,62z M52.001,56c0,0,0,2.938,0,3.999
			c0,1.063,5,2.001,5.999,2.001c1,0,2.001-4,2.001-4L52.001,56z"/>
	</g>
</g>
<g id="Hoodie">
	<g>
		<path style="fill:#88C057;" d="M56.001,15.999c-2-1.999-8-6-8-6h-36c0,0-6,4.001-8,6c-2,2-4,12-4,16S0,56,0,58c1.525,0,8-0.55,8-2
			c0-3.372,1.104-11.285,2.001-16c1.266-6.667,2-6,2-6s0,20.997,0,22c0,2,4,3.999,18,3.999s18-1.999,18-3.999
			c-0.001-1.003,0-22,0-22s0.733-0.667,1.999,6c0.896,4.715,2.001,12.628,2.001,16c0,1.45,6.475,2,8,2c0-2,0-22.001,0-26.001
			S58.001,17.999,56.001,15.999z"/>
	</g>
</g>
<g id="String_1_">
	<g>
		<path style="fill-rule:evenodd;clip-rule:evenodd;fill:#E6E6E6;" d="M26.001,11.999c-1.105,0-2,0.896-2,2.001v9.999
			c0,1.104,0.895,2,2,2c1.104,0,2-0.896,2-2V14C28.001,12.895,27.104,11.999,26.001,11.999z M34.001,11.999
			c-1.105,0-2,0.896-2,2.001v8c0,1.104,0.895,1.999,2,1.999c1.104,0,2-0.895,2-1.999v-8C36.001,12.895,35.105,11.999,34.001,11.999z
			"/>
	</g>
</g>
<g id="Pockets_11_">
	<g>
		<path style="fill-rule:evenodd;clip-rule:evenodd;fill:#75A64B;" d="M44.001,42c-0.75,0-2,1.188-2,1.999
			c0,0.958,3.625,10.001,6,10.001v-6C46.813,48,44.854,42,44.001,42z M16.001,42c-0.854,0-2.813,6-4,6v6c2.375,0,6-9.043,6-10.001
			C18.001,43.188,16.751,42,16.001,42z"/>
	</g>
</g>
<g id="Interior_7_">
	<g>
		<path style="fill:#517334;" d="M34.001,0h-8c0,0-8,3.036-8,6c0,3.984,10,9.999,10,9.999s0.375,4.001,2,4.001s2-4.001,2-4.001
			s10-6.015,10-9.999C42.001,3.036,34.001,0,34.001,0z"/>
	</g>
</g>
<g id="Hood_1_">
	<g>
		<path style="fill-rule:evenodd;clip-rule:evenodd;fill:#75A64B;" d="M26.001,0c-6,0-14,6.295-14,9.999c0,0,7.225,6,16,6
			c0,0-6-6.274-6-9.999C22.001,3.323,26.001,0,26.001,0z M48.001,9.999c0-3.704-8-9.999-14-9.999c0,0,4,3.323,4,6
			c0,3.725-6,9.999-6,9.999C40.776,15.999,48.001,9.999,48.001,9.999z"/>
	</g>
</g>
<g>
</g>
<g>
</g>
<g>
</g>
<g>
</g>
<g>
</g>
<g>
</g>
<g>
</g>
<g>
</g>
<g>
</g>
<g>
</g>
<g>
</g>
<g>
</g>
<g>
</g>
<g>
</g>
<g>
</g>
</svg>
