<?xml version="1.0" encoding="iso-8859-1"?>
<!-- Generator: Adobe Illustrator 16.0.0, SVG Export Plug-In . SVG Version: 6.00 Build 0)  -->
<!DOCTYPE svg PUBLIC "-//W3C//DTD SVG 1.1//EN" "http://www.w3.org/Graphics/SVG/1.1/DTD/svg11.dtd">
<svg version="1.1" id="Layer_1" xmlns="http://www.w3.org/2000/svg" xmlns:xlink="http://www.w3.org/1999/xlink" x="0px" y="0px"
	 width="56px" height="64px" viewBox="0 0 56 64" style="enable-background:new 0 0 56 64;" xml:space="preserve">
<g id="Steam">
	<g>
		<path style="fill-rule:evenodd;clip-rule:evenodd;fill:#CCCCCC;" d="M23,4c0-2.924-1-4-1-4s0.039,4.636-4.063,6
			C13.837,7.365,8,10.49,8,16h4.969c0-2.063,2.136-4.972,4.969-5.999C21.16,8.83,23,6.211,23,4z M25.199,6
			c0,0-0.072,3.337-3.999,5.455C19.519,12.361,18,14.384,18,16h0.8H22c0-1.172,1.199-2.405,2.399-3.636
			C25.831,10.896,26,9.983,26,8.728C26,7.066,25.199,6,25.199,6z"/>
	</g>
</g>
<g id="Mug">
	<g>
		<path style="fill:#48A0DC;" d="M36,16H4c-2.209,0-4,1.791-4,4v40c0,2.209,1.791,4,4,4h32c2.209,0,4-1.791,4-4V20
			C40,17.791,38.209,16,36,16z"/>
	</g>
</g>
<g id="Handle_7_">
	<g>
		<path style="fill:#387BA8;" d="M44,22h-4v6c0-1.104,0.896-2,2-2c4.418,0,8,3.582,8,8v8c0,4.419-3.582,8-8,8c-1.104,0-2-0.896-2-2
			v6h4c6.627,0,12-5.372,12-12v-8C56,27.372,50.627,22,44,22z"/>
	</g>
</g>
<g id="Tea">
	<g>
		<polygon style="fill-rule:evenodd;clip-rule:evenodd;fill:#FFCC66;" points="28,30 28,16 26,16 26,30 22,34 22,44 32,44 32,34 		
			"/>
	</g>
</g>
<g>
</g>
<g>
</g>
<g>
</g>
<g>
</g>
<g>
</g>
<g>
</g>
<g>
</g>
<g>
</g>
<g>
</g>
<g>
</g>
<g>
</g>
<g>
</g>
<g>
</g>
<g>
</g>
<g>
</g>
</svg>
