<?xml version="1.0" encoding="iso-8859-1"?>
<!-- Generator: Adobe Illustrator 16.0.0, SVG Export Plug-In . SVG Version: 6.00 Build 0)  -->
<!DOCTYPE svg PUBLIC "-//W3C//DTD SVG 1.1//EN" "http://www.w3.org/Graphics/SVG/1.1/DTD/svg11.dtd">
<svg version="1.1" id="Layer_1" xmlns="http://www.w3.org/2000/svg" xmlns:xlink="http://www.w3.org/1999/xlink" x="0px" y="0px"
	 width="64px" height="64px" viewBox="0 0 64 64" style="enable-background:new 0 0 64 64;" xml:space="preserve">
<g id="Ribbon_5_">
	<g>
		<path style="fill-rule:evenodd;clip-rule:evenodd;fill:#ED7161;" d="M6,56h8l4,8l14-36l-6-4L6,56z M38,24l-6,4l14,36l4-8h8L38,24z
			"/>
	</g>
</g>
<g id="Bow_3_">
	<g>
		<path style="fill-rule:evenodd;clip-rule:evenodd;fill:#ED7161;" d="M64,8c0-4.418-4-8-10-8c-8,0-22,16-22,16S18,0,10,0
			C4,0,0,3.582,0,8c0,0,2,6.309,2,12c0,6.279-2,12-2,12c0,4.418,4,6,10,6c8,0,22-10,22-10s14,10,22,10c6,0,10-1.582,10-6
			c0,0-2-5.721-2-12C62,14.309,64,8,64,8z"/>
	</g>
</g>
<g id="Interior_10_">
	<g>
		<path style="fill-rule:evenodd;clip-rule:evenodd;fill:#BA594C;" d="M6,30c0,3.682,1.5,4,6.75,4c7,0,19.25-8.334,19.25-8.334
			S23,24,16,24C10.75,24,6,26.318,6,30z M48,24c-7,0-16,1.666-16,1.666S44.25,34,51.25,34C56.5,34,58,33.682,58,30S53.25,24,48,24z"
			/>
	</g>
</g>
<g id="Knot_2_">
	<g>
		<path style="fill:#BA594C;" d="M34,12h-4c-2.209,0-4,1.791-4,4v8c0,2.209,1.791,4,4,4h4c2.209,0,4-1.791,4-4v-8
			C38,13.791,36.209,12,34,12z"/>
	</g>
</g>
<g>
</g>
<g>
</g>
<g>
</g>
<g>
</g>
<g>
</g>
<g>
</g>
<g>
</g>
<g>
</g>
<g>
</g>
<g>
</g>
<g>
</g>
<g>
</g>
<g>
</g>
<g>
</g>
<g>
</g>
</svg>
