<?xml version="1.0" encoding="iso-8859-1"?>
<!-- Generator: Adobe Illustrator 16.0.0, SVG Export Plug-In . SVG Version: 6.00 Build 0)  -->
<!DOCTYPE svg PUBLIC "-//W3C//DTD SVG 1.1//EN" "http://www.w3.org/Graphics/SVG/1.1/DTD/svg11.dtd">
<svg version="1.1" id="Layer_1" xmlns="http://www.w3.org/2000/svg" xmlns:xlink="http://www.w3.org/1999/xlink" x="0px" y="0px"
	 width="64px" height="64px" viewBox="0 0 64 64" style="enable-background:new 0 0 64 64;" xml:space="preserve">
<g id="Body_13_">
	<g>
		<path style="fill-rule:evenodd;clip-rule:evenodd;fill:#333333;" d="M60,47.998c-1.041-1.04-7.057-4.604-12.221-7.581
			c0.072-0.139,0.162-0.3,0.221-0.419c2-4,2-13.998,2-19.998c0-8-4.188-20-18-20S14,12,14,20c0,6,0,15.998,2,19.998
			c0.059,0.118,0.148,0.28,0.221,0.419C11.055,43.394,5.041,46.958,4,47.998C0.24,51.76,0,64,0,64h64C64,64,63.76,51.76,60,47.998z"
			/>
	</g>
</g>
<g id="Face_1_">
	<g>
		<path style="fill:#FFFFFF;" d="M44,20c0-8-5.188-14-12-14s-12,6-12,14c0,2-2,2-2,6c0,2,4,6,6,6c0,16,1.617,26,8,26s8-10,8-26
			c2,0,6-4,6-6C46,22,44,22.008,44,20z"/>
	</g>
</g>
<g id="Mouth_2_">
	<g>
		<path style="fill:#333333;" d="M32,34c-3.641,0-4,1.791-4,4s1.791,14,4,14s4-11.791,4-14S35.641,34,32,34z"/>
	</g>
</g>
<g id="Nose_3_">
	<g>
		<path style="fill:#666666;" d="M32,26c-1.75,0-2,4-2,4h4C34,30,33.75,26,32,26z"/>
	</g>
</g>
<g id="Eyes_4_">
	<g>
		<path style="fill-rule:evenodd;clip-rule:evenodd;fill:#666666;" d="M38,20c-1.207-1.207-0.855-4-2-4c-1,0-2,0.748-2,2
			c0,2.9,1.637,6,4,6c1.336,0,2-1.104,2-2C40,21.287,38.799,20.799,38,20z M28,16c-1.145,0-0.795,2.793-2,4
			c-1.238,1.236-2,1.287-2,2c0,0.896,0.664,2,2,2c2.363,0,4-3.1,4-6C30,16.748,29,16,28,16z"/>
	</g>
</g>
<g>
</g>
<g>
</g>
<g>
</g>
<g>
</g>
<g>
</g>
<g>
</g>
<g>
</g>
<g>
</g>
<g>
</g>
<g>
</g>
<g>
</g>
<g>
</g>
<g>
</g>
<g>
</g>
<g>
</g>
</svg>
