<?xml version="1.0" encoding="iso-8859-1"?>
<!-- Generator: Adobe Illustrator 16.0.0, SVG Export Plug-In . SVG Version: 6.00 Build 0)  -->
<!DOCTYPE svg PUBLIC "-//W3C//DTD SVG 1.1//EN" "http://www.w3.org/Graphics/SVG/1.1/DTD/svg11.dtd">
<svg version="1.1" id="Layer_1" xmlns="http://www.w3.org/2000/svg" xmlns:xlink="http://www.w3.org/1999/xlink" x="0px" y="0px"
	 width="64px" height="60.001px" viewBox="0 0 64 60.001" style="enable-background:new 0 0 64 60.001;" xml:space="preserve">
<g id="Frame_8_">
	<g>
		<path style="fill:#4D4D4D;" d="M60,0H4C1.791,0,0,1.791,0,4v36.001C0,42.21,1.791,44,4,44h56c2.209,0,4-1.79,4-3.999V4
			C64,1.791,62.209,0,60,0z"/>
	</g>
</g>
<g id="Display_2_">
	<g>
		<path style="fill:#808080;" d="M58,4H6C4.896,4,4,4.896,4,6v32c0,1.104,0.896,2.001,2,2.001h52c1.104,0,2-0.896,2-2.001V6
			C60,4.896,59.104,4,58,4z"/>
	</g>
</g>
<g id="Leg_3_">
	<g>
		<polygon style="fill-rule:evenodd;clip-rule:evenodd;fill:#B3B3B3;" points="40,44.001 32,44.001 24,44.001 22,56.001 32,56.001 
			42,56.001 		"/>
	</g>
</g>
<g id="Stand_4_">
	<g>
		<path style="fill-rule:evenodd;clip-rule:evenodd;fill:#CCCCCC;" d="M44,52.001H20c-2.209,0-4,1.79-4,4h32
			C48,53.791,46.209,52.001,44,52.001z"/>
	</g>
</g>
<g>
</g>
<g>
</g>
<g>
</g>
<g>
</g>
<g>
</g>
<g>
</g>
<g>
</g>
<g>
</g>
<g>
</g>
<g>
</g>
<g>
</g>
<g>
</g>
<g>
</g>
<g>
</g>
<g>
</g>
</svg>
