<?xml version="1.0" encoding="iso-8859-1"?>
<!-- Generator: Adobe Illustrator 16.0.0, SVG Export Plug-In . SVG Version: 6.00 Build 0)  -->
<!DOCTYPE svg PUBLIC "-//W3C//DTD SVG 1.1//EN" "http://www.w3.org/Graphics/SVG/1.1/DTD/svg11.dtd">
<svg version="1.1" id="Layer_1" xmlns="http://www.w3.org/2000/svg" xmlns:xlink="http://www.w3.org/1999/xlink" x="0px" y="0px"
	 width="60px" height="64px" viewBox="0 0 60 64" style="enable-background:new 0 0 60 64;" xml:space="preserve">
<g id="Red_3_">
	<g>
		<path style="fill:#D46557;" d="M32,14c-2.209,0-4,0.895-4,2v32c0,1.105,1.791,2,4,2c0.377,0,28-2,28-2V12L32,14z"/>
	</g>
</g>
<g id="Stripes_3_">
	<g>
		<path style="fill-rule:evenodd;clip-rule:evenodd;fill:#E6E6E6;" d="M28,44c0,1.105,1.791,2,4,2c0.377,0,28-2,28-2v-4l-28,2
			C29.791,42,28,42.895,28,44z M28,36c0,1.105,1.791,2,4,2c0.377,0,28-2,28-2v-4l-28,2C29.791,34,28,34.895,28,36z M28,28
			c0,1.105,1.791,2,4,2c0.377,0,28-2,28-2v-4l-28,2C29.791,26,28,26.895,28,28z M32,18c-2.209,0-4,0.895-4,2s1.791,2,4,2
			c0.377,0,28-2,28-2v-4L32,18z"/>
	</g>
</g>
<g id="Back_2_">
	<g>
		<path style="fill:#874137;" d="M28,36v8v4c0-1.105,1.791-2,4-2s4-0.895,4-2v-8H28z"/>
	</g>
</g>
<g id="Red_2_">
	<g>
		<path style="fill:#ED7161;" d="M32,26c-0.543,0-20,2-20,2v16c0,0,19.457-2,20-2c2.209,0,4,0.895,4,2V28C36,26.895,34.209,26,32,26
			z"/>
	</g>
</g>
<g id="Stripes_4_">
	<g>
		<path style="fill-rule:evenodd;clip-rule:evenodd;fill:#FFFFFF;" d="M32,34c-0.543,0-20,2-20,2v4c0,0,19.457-2,20-2
			c2.209,0,4,0.895,4,2v-4C36,34.895,34.209,34,32,34z M32,26c-0.543,0-20,2-20,2v4c0,0,19.457-2,20-2c2.209,0,4,0.895,4,2v-4
			C36,26.895,34.209,26,32,26z"/>
	</g>
</g>
<g id="Blue_1_">
	<g>
		<path style="fill:#48A0DC;" d="M32,6c-0.543,0-20,2-20,2v20c0,0,19.457-2,20-2c2.209,0,4,0.895,4,2V8C36,6.895,34.209,6,32,6z"/>
	</g>
</g>
<g id="Pole_1_">
	<g>
		<path style="fill-rule:evenodd;clip-rule:evenodd;fill:#CCCCCC;" d="M18,60h-6V7.445C13.191,6.752,14,5.477,14,4
			c0-2.209-1.791-4-4-4S6,1.791,6,4c0,1.477,0.809,2.752,2,3.445V60H2c-1.105,0-2,0.895-2,2c0,1.104,0.895,2,2,2h16
			c1.105,0,2-0.896,2-2C20,60.895,19.105,60,18,60z"/>
	</g>
</g>
<g>
</g>
<g>
</g>
<g>
</g>
<g>
</g>
<g>
</g>
<g>
</g>
<g>
</g>
<g>
</g>
<g>
</g>
<g>
</g>
<g>
</g>
<g>
</g>
<g>
</g>
<g>
</g>
<g>
</g>
</svg>
