<?xml version="1.0" encoding="iso-8859-1"?>
<!-- Generator: Adobe Illustrator 16.0.0, SVG Export Plug-In . SVG Version: 6.00 Build 0)  -->
<!DOCTYPE svg PUBLIC "-//W3C//DTD SVG 1.1//EN" "http://www.w3.org/Graphics/SVG/1.1/DTD/svg11.dtd">
<svg version="1.1" id="Layer_1" xmlns="http://www.w3.org/2000/svg" xmlns:xlink="http://www.w3.org/1999/xlink" x="0px" y="0px"
	 width="52px" height="64px" viewBox="0 0 52 64" style="enable-background:new 0 0 52 64;" xml:space="preserve">
<g id="Triangle">
	<g>
		<path style="fill-rule:evenodd;clip-rule:evenodd;fill:#9B7CAB;" d="M50,14H40c-1.104,0-2,0.896-2,2v10c0,1.104,0.896,2,2,2h2v2
			c0,2.209-1.791,4-4,4h-4h-6V18h4.5c0.525,0,1.012-0.287,1.284-0.757c0.271-0.469,0.288-1.052,0.043-1.538l-7.5-14.869
			C26.067,0.322,25.557,0,25,0s-1.068,0.322-1.328,0.836l-7.5,14.869c-0.244,0.486-0.228,1.069,0.044,1.538
			C16.487,17.713,16.975,18,17.5,18H22v22h-4h-4c-2.209,0-4-1.791-4-4v-2.683c2.363-1.124,4-3.526,4-6.317c0-3.866-3.134-7-7-7
			s-7,3.134-7,7c0,2.791,1.637,5.193,4,6.317V36c0,5.522,4.477,10,10,10h4h4v4.683c-2.363,1.124-4,3.526-4,6.317
			c0,3.866,3.134,7,7,7s7-3.134,7-7c0-2.791-1.637-5.193-4-6.317V40h6h4c5.522,0,10-4.478,10-10v-2h2c1.104,0,2-0.896,2-2V16
			C52,14.896,51.104,14,50,14z"/>
	</g>
</g>
<g>
</g>
<g>
</g>
<g>
</g>
<g>
</g>
<g>
</g>
<g>
</g>
<g>
</g>
<g>
</g>
<g>
</g>
<g>
</g>
<g>
</g>
<g>
</g>
<g>
</g>
<g>
</g>
<g>
</g>
</svg>
