<?xml version="1.0" encoding="iso-8859-1"?>
<!-- Generator: Adobe Illustrator 16.0.0, SVG Export Plug-In . SVG Version: 6.00 Build 0)  -->
<!DOCTYPE svg PUBLIC "-//W3C//DTD SVG 1.1//EN" "http://www.w3.org/Graphics/SVG/1.1/DTD/svg11.dtd">
<svg version="1.1" id="Layer_1" xmlns="http://www.w3.org/2000/svg" xmlns:xlink="http://www.w3.org/1999/xlink" x="0px" y="0px"
	 width="64px" height="74px" viewBox="0 0 64 74" style="enable-background:new 0 0 64 74;" xml:space="preserve">
<g id="Cable_18_">
	<g>
		<path style="fill:#CCCCCC;" d="M34,64h-4c-1.104,0-2,0.896-2,2v6c0,1.104,0.896,2,2,2h4c1.104,0,2-0.896,2-2v-6
			C36,64.896,35.104,64,34,64z"/>
	</g>
</g>
<g id="Cable_19_">
	<g>
		<path style="fill:#B3B3B3;" d="M36,56h-8c-1.104,0-2,0.896-2,2v6c0,1.104,0.896,2,2,2h8c1.104,0,2-0.896,2-2v-6
			C38,56.896,37.104,56,36,56z"/>
	</g>
</g>
<g id="Body_21_">
	<g>
		<path style="fill:#CCCCCC;" d="M60,20H4c-2.209,0-4,1.791-4,4v32c0,2.209,1.791,4,4,4h56c2.209,0,4-1.791,4-4V24
			C64,21.791,62.209,20,60,20z"/>
	</g>
</g>
<g id="Body_22_">
	<g>
		<path style="fill:#FFFFFF;" d="M58,24H6c-1.104,0-2,0.896-2,2v28c0,1.104,0.896,2,2,2h52c1.104,0,2-0.896,2-2V26
			C60,24.896,59.104,24,58,24z"/>
	</g>
</g>
<g id="Symbol_1_">
	<g>
		<path style="fill-rule:evenodd;clip-rule:evenodd;fill:#CCCCCC;" d="M40,36H24c-1.104,0-2,0.896-2,2v6c0,1.104,0.896,2,2,2h16
			c1.104,0,2-0.896,2-2v-6C42,36.896,41.104,36,40,36z M40,44H24v-6h16V44z M27,42h10c0.552,0,1-0.448,1-1s-0.448-1-1-1H27
			c-0.552,0-1,0.448-1,1S26.448,42,27,42z"/>
	</g>
</g>
<g id="Plug_4_">
	<g>
		<path style="fill-rule:evenodd;clip-rule:evenodd;fill:#B3B3B3;" d="M54,10H10c-1.104,0-2,0.896-2,2v8h48v-8
			C56,10.896,55.104,10,54,10z"/>
	</g>
</g>
<g id="Pins_7_">
	<g>
		<path style="fill-rule:evenodd;clip-rule:evenodd;fill:#8C8C8C;" d="M16,14c0,1.104,0.895,2,2,2c1.104,0,2-0.896,2-2v-4h-4V14z
			 M44,10v4c0,1.104,0.896,2,2,2s2-0.896,2-2v-4H44z"/>
	</g>
</g>
<g>
</g>
<g>
</g>
<g>
</g>
<g>
</g>
<g>
</g>
<g>
</g>
<g>
</g>
<g>
</g>
<g>
</g>
<g>
</g>
<g>
</g>
<g>
</g>
<g>
</g>
<g>
</g>
<g>
</g>
</svg>
