<?xml version="1.0" encoding="iso-8859-1"?>
<!-- Generator: Adobe Illustrator 16.0.0, SVG Export Plug-In . SVG Version: 6.00 Build 0)  -->
<!DOCTYPE svg PUBLIC "-//W3C//DTD SVG 1.1//EN" "http://www.w3.org/Graphics/SVG/1.1/DTD/svg11.dtd">
<svg version="1.1" id="Layer_1" xmlns="http://www.w3.org/2000/svg" xmlns:xlink="http://www.w3.org/1999/xlink" x="0px" y="0px"
	 width="56px" height="63.998px" viewBox="0 0 56 63.998" style="enable-background:new 0 0 56 63.998;" xml:space="preserve">
<g id="String_16_">
	<g>
		<path style="fill:#CCCCCC;" d="M34.699,52.053c-0.917-0.225-1.854,0.256-2.095,1.076l-2.603,8.908
			c-0.24,0.82,0.31,1.666,1.227,1.893c0.917,0.225,1.855-0.256,2.095-1.076l2.604-8.908C36.166,53.125,35.616,52.277,34.699,52.053z
			"/>
	</g>
</g>
<g id="Balloon_18_">
	<g>
		<path style="fill:#48A0DC;" d="M45.177,12.588c-7.834-2.199-15.573,1.447-18.302,12.111c-2.729,10.666,0.998,22.705,8.832,24.902
			c7.833,2.199,16.809-6.275,19.537-16.941C57.974,21.996,53.012,14.785,45.177,12.588z"/>
	</g>
</g>
<g id="Balloon_16_">
	<g>
		<path style="fill:#387BA8;" d="M36.301,48.113c-2.836-0.811-5.945,2.545-6.244,3.736s0.462,1.973,1.219,2.189
			s5.844,1.672,6.601,1.889c0.756,0.215,1.782-0.055,2.082-1.246C40.257,53.49,39.137,48.926,36.301,48.113z"/>
	</g>
</g>
<g id="String_14_">
	<g>
		<path style="fill:#CCCCCC;" d="M17.989,47.998c-1.104,0-1.999,0.896-1.999,2v12c0,1.105,0.895,2,1.999,2
			c1.104,0,1.999-0.895,1.999-2v-12C19.988,48.895,19.093,47.998,17.989,47.998z"/>
	</g>
</g>
<g id="Balloon_14_">
	<g>
		<path style="fill:#ED7161;" d="M17.989,0C8.054,0,0,6.744,0,20c0,13.254,8.054,26,17.989,26s17.989-12.746,17.989-26
			C35.979,6.744,27.925,0,17.989,0z"/>
	</g>
</g>
<g id="Balloon_12_">
	<g>
		<path style="fill:#D46557;" d="M17.989,43.998c-3.436,0-5.996,4.613-5.996,6c0,1.389,1.082,2.002,1.999,2.002h7.995
			c0.915,0,1.998-0.613,1.998-2.002C23.985,48.611,21.425,43.998,17.989,43.998z"/>
	</g>
</g>
<g>
</g>
<g>
</g>
<g>
</g>
<g>
</g>
<g>
</g>
<g>
</g>
<g>
</g>
<g>
</g>
<g>
</g>
<g>
</g>
<g>
</g>
<g>
</g>
<g>
</g>
<g>
</g>
<g>
</g>
</svg>
