<?xml version="1.0" encoding="iso-8859-1"?>
<!-- Generator: Adobe Illustrator 16.0.0, SVG Export Plug-In . SVG Version: 6.00 Build 0)  -->
<!DOCTYPE svg PUBLIC "-//W3C//DTD SVG 1.1//EN" "http://www.w3.org/Graphics/SVG/1.1/DTD/svg11.dtd">
<svg version="1.1" id="Layer_1" xmlns="http://www.w3.org/2000/svg" xmlns:xlink="http://www.w3.org/1999/xlink" x="0px" y="0px"
	 width="64px" height="64px" viewBox="0 0 64 64" style="enable-background:new 0 0 64 64;" xml:space="preserve">
<g id="Base_28_">
	<g>
		<path style="fill:#CCCCCC;" d="M0,20v40c0,2.211,1.79,4,4,4h56c2.209,0,4-1.789,4-4V20H0z"/>
	</g>
</g>
<g id="Container_8_">
	<g>
		<path style="fill:#FFFFFF;" d="M4,20.002v38c0,1.104,0.896,2,2,2h52c1.104,0,2-0.896,2-2v-38H4z"/>
	</g>
</g>
<g id="_x34__2_">
	<g>
		<path style="fill-rule:evenodd;clip-rule:evenodd;fill:#48A0DC;" d="M38,42v-1.998c0-1.105-0.896-2-2-2s-2,0.895-2,2V42h-4.558
			l6.29-10.969c0.552-0.963,0.225-2.195-0.732-2.75c-0.957-0.557-2.18-0.227-2.732,0.736l-8,13.953
			c-0.032,0.056-0.032,0.118-0.059,0.175c-0.042,0.088-0.063,0.182-0.092,0.276c-0.045,0.153-0.085,0.301-0.092,0.456
			C24.022,43.921,24,43.958,24,44.002c0,0.09,0.039,0.166,0.051,0.253c0.018,0.123,0.033,0.241,0.073,0.359
			c0.049,0.149,0.118,0.28,0.199,0.412c0.051,0.083,0.098,0.162,0.16,0.237c0.112,0.135,0.243,0.243,0.388,0.345
			c0.048,0.034,0.077,0.084,0.129,0.114c0.025,0.015,0.056,0.014,0.082,0.027c0.152,0.081,0.315,0.126,0.488,0.165
			c0.092,0.021,0.18,0.048,0.273,0.056c0.054,0.004,0.101,0.031,0.156,0.031h8V50c0,1.105,0.896,2.002,2,2.002s2-0.896,2-2.002
			v-3.998c1.104,0,2-0.896,2-2C40,42.896,39.104,42,38,42z"/>
	</g>
</g>
<g id="Header_2_">
	<g>
		<path style="fill-rule:evenodd;clip-rule:evenodd;fill:#ED7261;" d="M60,0H4C1.79,0,0,1.791,0,4.002V20h64V4.002
			C64,1.791,62.209,0,60,0z M24,12.002c-1.105,0-2-0.896-2-2.002c0-1.104,0.895-1.998,2-1.998c1.104,0,2,0.895,2,1.998
			C26,11.105,25.104,12.002,24,12.002z M40,12.002c-1.104,0-2-0.896-2-2.002c0-1.104,0.896-1.998,2-1.998S42,8.896,42,10
			C42,11.105,41.104,12.002,40,12.002z"/>
	</g>
</g>
<g>
</g>
<g>
</g>
<g>
</g>
<g>
</g>
<g>
</g>
<g>
</g>
<g>
</g>
<g>
</g>
<g>
</g>
<g>
</g>
<g>
</g>
<g>
</g>
<g>
</g>
<g>
</g>
<g>
</g>
</svg>
