<?xml version="1.0" encoding="iso-8859-1"?>
<!-- Generator: Adobe Illustrator 16.0.0, SVG Export Plug-In . SVG Version: 6.00 Build 0)  -->
<!DOCTYPE svg PUBLIC "-//W3C//DTD SVG 1.1//EN" "http://www.w3.org/Graphics/SVG/1.1/DTD/svg11.dtd">
<svg version="1.1" id="Layer_1" xmlns="http://www.w3.org/2000/svg" xmlns:xlink="http://www.w3.org/1999/xlink" x="0px" y="0px"
	 width="64px" height="44px" viewBox="0 0 64 44" style="enable-background:new 0 0 64 44;" xml:space="preserve">
<g id="Card_7_">
	<g>
		<path style="fill:#9B7CAB;" d="M60,0H4C1.791,0,0,1.791,0,4v36c0,2.209,1.791,4,4,4h56c2.209,0,4-1.791,4-4V4
			C64,1.791,62.209,0,60,0z"/>
	</g>
</g>
<g id="Skrill">
	<g>
		<path style="fill-rule:evenodd;clip-rule:evenodd;fill:#FFFFFF;" d="M27.003,17.704c-0.096,0.241-0.79,2.188-2.467,4.207V13.28
			l-4.469,0.878v15.645h4.469v-4.836c1.294,1.931,1.933,4.836,1.933,4.836h5.353c-0.529-2.188-2.845-6.224-2.845-6.224
			c2.079-2.62,2.991-5.412,3.137-5.875H27.003z M12.573,19.427c-0.547-0.035-1.814-0.116-1.814-1.251
			c0-1.369,1.824-1.369,2.509-1.369c1.203,0,2.761,0.354,3.874,0.686c0,0,0.621,0.217,1.149,0.439l0.05,0.014v-0.05v-3.699
			l-0.068-0.02c-1.313-0.457-2.84-0.896-5.671-0.896c-4.882,0-6.611,2.828-6.611,5.25c0,1.396,0.602,4.683,6.192,5.062
			c0.474,0.029,1.731,0.102,1.731,1.273c0,0.968-1.029,1.539-2.761,1.539c-1.898,0-3.739-0.482-4.857-0.938v3.86
			c1.674,0.437,3.561,0.655,5.773,0.655c4.773,0,6.911-2.676,6.911-5.327C18.979,21.648,16.587,19.694,12.573,19.427z
			 M38.751,17.541c-4.002,0.128-6.034,1.914-6.034,5.463v6.799h4.366v-5.545c0-2.125,0.28-3.036,2.816-3.122v-3.532
			C39.473,17.514,38.751,17.541,38.751,17.541z M47.358,29.803h4.328V13.28l-4.328,0.771V29.803z M41.192,29.803h4.332V17.718
			h-4.332V29.803z M53.679,14.051v15.752h4.332V13.28L53.679,14.051z M43.356,16.13c1.18,0,2.135-0.92,2.135-2.056
			c0-1.135-0.956-2.056-2.135-2.056c-1.178,0-2.133,0.921-2.133,2.056C41.223,15.21,42.179,16.13,43.356,16.13z"/>
	</g>
</g>
<g>
</g>
<g>
</g>
<g>
</g>
<g>
</g>
<g>
</g>
<g>
</g>
<g>
</g>
<g>
</g>
<g>
</g>
<g>
</g>
<g>
</g>
<g>
</g>
<g>
</g>
<g>
</g>
<g>
</g>
</svg>
