<?xml version="1.0" encoding="iso-8859-1"?>
<!-- Generator: Adobe Illustrator 16.0.0, SVG Export Plug-In . SVG Version: 6.00 Build 0)  -->
<!DOCTYPE svg PUBLIC "-//W3C//DTD SVG 1.1//EN" "http://www.w3.org/Graphics/SVG/1.1/DTD/svg11.dtd">
<svg version="1.1" id="Layer_1" xmlns="http://www.w3.org/2000/svg" xmlns:xlink="http://www.w3.org/1999/xlink" x="0px" y="0px"
	 width="64px" height="46px" viewBox="0 0 64 46" style="enable-background:new 0 0 64 46;" xml:space="preserve">
<g id="Cloud_4_">
	<g>
		<path style="fill-rule:evenodd;clip-rule:evenodd;fill:#48A0DC;" d="M53.952,18.6c0.007-0.203,0.031-0.401,0.031-0.606
			C53.982,8.056,45.921,0,35.978,0c-7.438,0-13.82,4.509-16.565,10.941c-1.351-0.594-2.842-0.929-4.412-0.929
			c-6.07,0-10.992,4.926-10.992,11.001c0,0.387,0.021,0.769,0.06,1.145C1.554,24.686,0,28.167,0,32.013C0,39.738,6.266,46,13.995,46
			c0.011,0,0.021-0.001,0.031-0.001V46h35.947v-0.001c0.01,0,0.02,0.001,0.03,0.001C57.733,46,64,39.738,64,32.013
			C64,25.659,59.757,20.304,53.952,18.6z"/>
	</g>
</g>
<g id="Arrow_1_">
	<g>
		<path style="fill-rule:evenodd;clip-rule:evenodd;fill:#FFFFFF;" d="M39.35,26.586c-0.81-0.807-2.123-0.807-2.933,0L34,28.995V18
			c0-1.105-0.896-2.001-2-2.001c-1.105,0-2,0.896-2,2.001v11.09l-2.491-2.5c-0.807-0.81-2.114-0.81-2.921,0
			c-0.807,0.809-0.807,2.121,0,2.931l5.842,5.859c0.324,0.326,0.73,0.51,1.151,0.574C31.716,35.983,31.856,36,32,36
			c0.562,0,1.067-0.233,1.431-0.605c0.017-0.015,0.037-0.024,0.053-0.04l5.866-5.846C40.159,28.701,40.159,27.394,39.35,26.586z"/>
	</g>
</g>
<g>
</g>
<g>
</g>
<g>
</g>
<g>
</g>
<g>
</g>
<g>
</g>
<g>
</g>
<g>
</g>
<g>
</g>
<g>
</g>
<g>
</g>
<g>
</g>
<g>
</g>
<g>
</g>
<g>
</g>
</svg>
