<?xml version="1.0" encoding="iso-8859-1"?>
<!-- Generator: Adobe Illustrator 16.0.0, SVG Export Plug-In . SVG Version: 6.00 Build 0)  -->
<!DOCTYPE svg PUBLIC "-//W3C//DTD SVG 1.1//EN" "http://www.w3.org/Graphics/SVG/1.1/DTD/svg11.dtd">
<svg version="1.1" id="Layer_1" xmlns="http://www.w3.org/2000/svg" xmlns:xlink="http://www.w3.org/1999/xlink" x="0px" y="0px"
	 width="64px" height="64px" viewBox="0 0 64 64" style="enable-background:new 0 0 64 64;" xml:space="preserve">
<g id="Pins_9_">
	<g>
		<path style="fill-rule:evenodd;clip-rule:evenodd;fill:#FFCC66;" d="M62,26c1.104,0,2-0.896,2-2c0-1.105-0.896-2-2-2H50v-4h12
			c1.104,0,2-0.896,2-2c0-1.105-0.896-2-2-2H50V2c0-1.105-0.896-2-2-2s-2,0.895-2,2v12h-4V2c0-1.105-0.896-2-2-2s-2,0.895-2,2v12h-4
			V2c0-1.105-0.896-2-2-2s-2,0.895-2,2v12h-4V2c0-1.105-0.896-2-2-2s-2,0.895-2,2v12h-4V2c0-1.105-0.896-2-2-2s-2,0.895-2,2v12H2
			c-1.104,0-2,0.895-2,2c0,1.104,0.896,2,2,2h12v4H2c-1.104,0-2,0.895-2,2c0,1.104,0.896,2,2,2h12v4H2c-1.104,0-2,0.895-2,2
			c0,1.104,0.896,2,2,2h12v4H2c-1.104,0-2,0.895-2,1.999C0,41.104,0.896,42,2,42h12v4H2c-1.104,0-2,0.895-2,2c0,1.104,0.896,2,2,2
			h12v12c0,1.104,0.896,2,2,2s2-0.896,2-2V50h4v12c0,1.104,0.896,2,2,2s2-0.896,2-2V50h4v12c0,1.104,0.896,2,2,2s2-0.896,2-2V50h4
			v12c0,1.104,0.896,2,2,2s2-0.896,2-2V50h4v12c0,1.104,0.896,2,2,2s2-0.896,2-2V50h12c1.104,0,2-0.896,2-2c0-1.105-0.896-2-2-2H50
			v-4h12c1.104,0,2-0.896,2-2.001C64,38.895,63.104,38,62,38H50v-4h12c1.104,0,2-0.896,2-2c0-1.105-0.896-2-2-2H50v-4H62z M46,18v4
			h-4v-4H46z M38,18v4h-4v-4H38z M30,34v4h-4v-4H30z M26,30v-4h4v4H26z M34,34h4v4h-4V34z M34,30v-4h4v4H34z M30,18v4h-4v-4H30z
			 M18,18h4v4h-4V18z M18,26h4v4h-4V26z M18,34h4v4h-4V34z M18,46v-4h4v4H18z M26,46v-4h4v4H26z M34,46v-4h4v4H34z M46,46h-4v-4h4
			V46z M46,38h-4v-4h4V38z M46,30h-4v-4h4V30z"/>
	</g>
</g>
<g id="Body_25_">
	<g>
		<path style="fill:#4D4D4D;" d="M50,10H14c-2.209,0-4,1.791-4,4v36c0,2.209,1.791,4,4,4h36c2.209,0,4-1.791,4-4V14
			C54,11.791,52.209,10,50,10z"/>
	</g>
</g>
<g id="Shape_6_">
	<g>
		<path style="fill:#808080;" d="M48,14H16c-1.104,0-2,0.895-2,2v32c0,1.104,0.896,2,2,2h32c1.104,0,2-0.896,2-2V16
			C50,14.895,49.104,14,48,14z"/>
	</g>
</g>
<g id="_x36_4">
	<g>
		<path style="fill-rule:evenodd;clip-rule:evenodd;fill:#FFFFFF;" d="M46,31.998v-8c0-1.013-0.755-1.84-1.73-1.972
			c-0.691-0.122-1.424,0.121-1.907,0.72l-7.878,9.759c-0.313,0.39-0.461,0.86-0.468,1.332C34.012,33.891,34,33.942,34,33.998
			c0,1.048,0.808,1.896,1.833,1.983c0.002,0,0.004,0,0.006,0c0.054,0.005,0.105,0.017,0.161,0.017h6v2.001c0,1.104,0.896,2,2,2
			s2-0.896,2-2v-2.001c1.104,0,2-0.895,2-2C48,32.894,47.104,31.998,46,31.998z M42,31.998h-1.773L42,29.801V31.998z M24,27.988
			c-0.297,0-0.587,0.028-0.873,0.07c0.571-0.982,1.339-1.708,2.261-2.629c0.004-0.004,0.007-0.012,0.011-0.017
			c0.377-0.364,0.612-0.873,0.612-1.438c0-1.108-0.9-2.007-2.011-2.007c-0.439,0-0.843,0.145-1.174,0.384
			c-0.076,0.051-0.15,0.105-0.213,0.168c-2.213,2.208-4.645,4.846-4.645,11.49c0,3.319,2.705,6.02,6.031,6.02s6.031-2.7,6.031-6.02
			C30.031,30.689,27.326,27.988,24,27.988z M24,36.017c-1.108,0-2.011-0.9-2.011-2.007c0-1.107,0.902-2.008,2.011-2.008
			s2.011,0.9,2.011,2.008C26.011,35.116,25.108,36.017,24,36.017z"/>
	</g>
</g>
<g>
</g>
<g>
</g>
<g>
</g>
<g>
</g>
<g>
</g>
<g>
</g>
<g>
</g>
<g>
</g>
<g>
</g>
<g>
</g>
<g>
</g>
<g>
</g>
<g>
</g>
<g>
</g>
<g>
</g>
</svg>
