<?xml version="1.0" encoding="iso-8859-1"?>
<!-- Generator: Adobe Illustrator 16.0.0, SVG Export Plug-In . SVG Version: 6.00 Build 0)  -->
<!DOCTYPE svg PUBLIC "-//W3C//DTD SVG 1.1//EN" "http://www.w3.org/Graphics/SVG/1.1/DTD/svg11.dtd">
<svg version="1.1" id="Layer_1" xmlns="http://www.w3.org/2000/svg" xmlns:xlink="http://www.w3.org/1999/xlink" x="0px" y="0px"
	 width="56px" height="64.002px" viewBox="0 0 56 64.002" style="enable-background:new 0 0 56 64.002;" xml:space="preserve">
<g id="Cream_2_">
	<g>
		<ellipse style="fill:#E6E6E6;" cx="28" cy="32.002" rx="24" ry="10"/>
	</g>
</g>
<g id="Cake_11_">
	<g>
		<path style="fill:#FFCC66;" d="M44,32.002c-8,0-8,2-16,2s-8-2-16-2s-12,2-12,6s2.049,4,2.049,4l1.951,2h48l2-2c0,0,2,0,2-4
			S52,32.002,44,32.002z"/>
	</g>
</g>
<g id="Cup_12_">
	<g>
		<path style="fill:#48A0DC;" d="M53.623,40.832c-0.377-0.521-0.896-0.83-1.623-0.83c-4,0-4,4-8,4s-4-4-8-4s-4,4-7.999,4
			c-4.001,0-4.001-4-8.002-4c-3.999,0-3.999,4-7.998,4c-4.001,0-4.001-4-8.001-4c-0.643,0-1.246,0.309-1.622,0.83
			s-0.479,1.191-0.275,1.803l8,20c0.272,0.816,1.036,1.367,1.897,1.367h32c0.861,0,1.625-0.551,1.896-1.367l8-20
			C54.102,42.023,53.998,41.354,53.623,40.832z"/>
	</g>
</g>
<g id="Lines_22_">
	<g>
		<path style="fill-rule:evenodd;clip-rule:evenodd;fill:#408EC2;" d="M26,43.539v20.463h4V43.539
			c-0.553,0.268-1.179,0.463-1.999,0.463C27.18,44.002,26.554,43.807,26,43.539z M6.18,40.543L14,64.002h4l-6.697-20.09
			C8.819,43.564,8.018,41.535,6.18,40.543z M19.999,40.002c-1.812,0-2.798,0.826-3.712,1.725L20,64.002h4L19.999,40.002
			L19.999,40.002z M44.697,43.912L38,64.002h4l7.82-23.459C47.981,41.535,47.181,43.564,44.697,43.912z M36,40.002l-4,24h4
			l3.713-22.275C38.799,40.828,37.813,40.002,36,40.002z"/>
	</g>
</g>
<g id="Candle_15_">
	<g>
		<path style="fill:#F06EAA;" d="M30,12.002h-4c-1.104,0-2,0.895-2,2v8h8v-8C32,12.896,31.104,12.002,30,12.002z"/>
	</g>
</g>
<g id="Fire_24_">
	<g>
		<path style="fill:#FFCC66;" d="M28,0c0,6.039-4.001,4.951-4.001,8.4c0,1.988,1.791,3.602,4.001,3.602
			c2.209,0,3.999-1.613,3.999-3.602S31.667,3.301,28,0z"/>
	</g>
</g>
<g>
</g>
<g>
</g>
<g>
</g>
<g>
</g>
<g>
</g>
<g>
</g>
<g>
</g>
<g>
</g>
<g>
</g>
<g>
</g>
<g>
</g>
<g>
</g>
<g>
</g>
<g>
</g>
<g>
</g>
</svg>
