<?xml version="1.0" encoding="iso-8859-1"?>
<!-- Generator: Adobe Illustrator 16.0.0, SVG Export Plug-In . SVG Version: 6.00 Build 0)  -->
<!DOCTYPE svg PUBLIC "-//W3C//DTD SVG 1.1//EN" "http://www.w3.org/Graphics/SVG/1.1/DTD/svg11.dtd">
<svg version="1.1" id="Layer_1" xmlns="http://www.w3.org/2000/svg" xmlns:xlink="http://www.w3.org/1999/xlink" x="0px" y="0px"
	 width="48px" height="64px" viewBox="0 0 48 64" style="enable-background:new 0 0 48 64;" xml:space="preserve">
<g id="Body_28_">
	<g>
		<path style="fill:#4D4D4D;" d="M44,0H4C1.791,0,0,1.79,0,4v56c0,2.209,1.791,4,4,4h40c2.209,0,4-1.791,4-4V4
			C48,1.79,46.209,0,44,0z"/>
	</g>
</g>
<g id="Disk">
	<g>
		<circle style="fill:#ED7161;" cx="24" cy="28" r="20"/>
	</g>
</g>
<g id="Middle">
	<g>
		<circle style="fill:#4D4D4D;" cx="24" cy="28" r="4"/>
	</g>
</g>
<g id="Screws_4_">
	<g>
		<path style="fill-rule:evenodd;clip-rule:evenodd;fill:#CCCCCC;" d="M6,4C4.896,4,4,4.895,4,6c0,1.104,0.896,2,2,2s2-0.896,2-2
			C8,4.895,7.104,4,6,4z M42,8c1.104,0,2-0.896,2-2c0-1.105-0.896-2-2-2s-2,0.895-2,2C40,7.104,40.896,8,42,8z M42,56
			c-1.104,0-2,0.895-2,2c0,1.104,0.896,2,2,2s2-0.896,2-2C44,56.895,43.104,56,42,56z"/>
	</g>
</g>
<g id="Hand">
	<g>
		<path style="fill:#E6E6E6;" d="M22,34.012c-0.654,0-1.208,0.334-1.572,0.816L6,49.537c0,0-2,0.992-2,4.479
			c0,3.298,2.687,5.972,6,5.972c2.795,0,4.748-2.036,5.789-4.485l7.783-18.326C23.823,36.844,24,36.45,24,36.003
			C24,34.903,23.104,34.012,22,34.012z"/>
	</g>
</g>
<g>
</g>
<g>
</g>
<g>
</g>
<g>
</g>
<g>
</g>
<g>
</g>
<g>
</g>
<g>
</g>
<g>
</g>
<g>
</g>
<g>
</g>
<g>
</g>
<g>
</g>
<g>
</g>
<g>
</g>
</svg>
