<?xml version="1.0" encoding="iso-8859-1"?>
<!-- Generator: Adobe Illustrator 16.0.0, SVG Export Plug-In . SVG Version: 6.00 Build 0)  -->
<!DOCTYPE svg PUBLIC "-//W3C//DTD SVG 1.1//EN" "http://www.w3.org/Graphics/SVG/1.1/DTD/svg11.dtd">
<svg version="1.1" id="Layer_1" xmlns="http://www.w3.org/2000/svg" xmlns:xlink="http://www.w3.org/1999/xlink" x="0px" y="0px"
	 width="42px" height="64px" viewBox="0 0 42 64" style="enable-background:new 0 0 42 64;" xml:space="preserve">
<g id="Bevel_1_">
	<g>
		<path style="fill:#CCCCCC;" d="M38,0H4C2.208,0,0,2.083,0,4.001V6v2v48v2v2v0.001C0.001,61.815,2.087,64,4,64h34
			c1.9,0,3.999-2.048,4-3.999v-56C42,2.083,39.854,0,38,0z"/>
	</g>
</g>
<g id="Apple_Logo_5_">
	<g>
		<path style="fill-rule:evenodd;clip-rule:evenodd;fill:#808080;" d="M24.074,24c-0.557,0.021-1.23,0.318-1.629,0.721
			c-0.358,0.356-0.671,0.927-0.588,1.474c0.621,0.041,1.254-0.272,1.641-0.674C23.884,25.117,24.145,24.559,24.074,24z M24,30
			c0-2.374,1.697-2.479,1.743-2.509c-0.577-0.848-1.477-0.965-1.797-0.978c-0.765-0.079-1.493,0.452-1.882,0.452
			c-0.387,0-0.986-0.441-1.621-0.43c-0.834,0.013-1.604,0.486-2.032,1.238c-0.867,1.511-0.223,3.75,0.622,4.976
			c0.413,0.598,0.905,1.272,1.551,1.247c0.623-0.023,0.858-0.404,1.611-0.404c0.752,0,0.963,0.404,1.621,0.393
			c0.67-0.012,1.094-0.611,1.504-1.213c0.474-0.696,0.669-1.37,0.681-1.403C25.986,31.361,23.999,31.495,24,30z"/>
	</g>
</g>
<g id="Camera_1_">
	<g>
		<circle style="fill:#808080;" cx="10" cy="9.998" r="2"/>
	</g>
</g>
<g>
</g>
<g>
</g>
<g>
</g>
<g>
</g>
<g>
</g>
<g>
</g>
<g>
</g>
<g>
</g>
<g>
</g>
<g>
</g>
<g>
</g>
<g>
</g>
<g>
</g>
<g>
</g>
<g>
</g>
</svg>
