<?xml version="1.0" encoding="iso-8859-1"?>
<!-- Generator: Adobe Illustrator 16.0.0, SVG Export Plug-In . SVG Version: 6.00 Build 0)  -->
<!DOCTYPE svg PUBLIC "-//W3C//DTD SVG 1.1//EN" "http://www.w3.org/Graphics/SVG/1.1/DTD/svg11.dtd">
<svg version="1.1" id="Layer_1" xmlns="http://www.w3.org/2000/svg" xmlns:xlink="http://www.w3.org/1999/xlink" x="0px" y="0px"
	 width="64px" height="64.001px" viewBox="0 0 64 64.001" style="enable-background:new 0 0 64 64.001;" xml:space="preserve">
<g id="Suit_5_">
	<g>
		<path style="fill:#666666;" d="M4,48c-3.761,3.761-4,16-4,16l24,0.001L22,38C22,38,5.88,46.12,4,48z M60,48
			c-1.881-1.88-18-10-18-10l-2,26h24C64,64,63.76,51.761,60,48z"/>
	</g>
</g>
<g id="Collar_4_">
	<g>
		<path style="fill:#4D4D4D;" d="M14,44.001l4,2L14,50l8,14h2l-2-26L14,44.001z M50,44.001L42,38l-2,26h2l8-14l-4-3.999L50,44.001z"
			/>
	</g>
</g>
<g id="Shirt_4_">
	<g>
		<polygon style="fill:#FFFFFF;" points="40,36.001 24,36.001 22,38.001 24,64 40,64 42,38.001 		"/>
	</g>
</g>
<g id="Tie_3_">
	<g>
		<path style="fill-rule:evenodd;clip-rule:evenodd;fill:#48A0DC;" d="M36,44.001c-2-2.001-4-4-4-4s-2,1.999-4,4c0,2,2,2,2,2L28,64
			h8l-2-17.999C34,46.001,36,46.001,36,44.001z"/>
	</g>
</g>
<g id="Neck_6_">
	<g>
		<path style="fill:#DBB59A;" d="M38,30.001H26l-2,6c0,1.104,4.895,4,6,4h4c1.104,0,6-2.896,6-4L38,30.001z"/>
	</g>
</g>
<g id="Head_7_">
	<g>
		<path style="fill:#F6CBAD;" d="M32,2c-7.732,0-14,4-14,12c0,6.001,2,10,4,14.001c2,3.999,6.081,8,10,8c3.918,0,8-4.001,10-8
			c2-4.001,4-8,4-14.001C46,6,39.731,2,32,2z"/>
	</g>
</g>
<g id="Hair_6_">
	<g>
		<path style="fill:#8C6845;" d="M32,0c-4.685,0-10,1.73-10,4.001c-2.958,0-4,6.618-4,11.999c0,0.898,0.08,1.843,0.205,2.804
			c0.515-2.646,2.105-6.803,5.795-6.803c3.453,0,2.108,0,8,0c3.063,0,8-1.498,8-4.001c2.596-0.034,6,3.661,6,8
			C46,8.137,44.715,0,32,0z"/>
	</g>
</g>
<g>
</g>
<g>
</g>
<g>
</g>
<g>
</g>
<g>
</g>
<g>
</g>
<g>
</g>
<g>
</g>
<g>
</g>
<g>
</g>
<g>
</g>
<g>
</g>
<g>
</g>
<g>
</g>
<g>
</g>
</svg>
