<?xml version="1.0" encoding="iso-8859-1"?>
<!-- Generator: Adobe Illustrator 16.0.0, SVG Export Plug-In . SVG Version: 6.00 Build 0)  -->
<!DOCTYPE svg PUBLIC "-//W3C//DTD SVG 1.1//EN" "http://www.w3.org/Graphics/SVG/1.1/DTD/svg11.dtd">
<svg version="1.1" id="Layer_1" xmlns="http://www.w3.org/2000/svg" xmlns:xlink="http://www.w3.org/1999/xlink" x="0px" y="0px"
	 width="63.948px" height="48.001px" viewBox="0 0 63.948 48.001" style="enable-background:new 0 0 63.948 48.001;"
	 xml:space="preserve">
<g id="Tape">
	<g>
		<path style="fill-rule:evenodd;clip-rule:evenodd;fill:#FFCC66;" d="M23.965,0C14.038,0,5.991,8.06,5.991,18
			c0,9.941,8.047,18,17.974,18c9.926,0,17.974-8.059,17.974-18C41.938,8.06,33.891,0,23.965,0z M23.965,28
			c-5.515,0-9.985-4.478-9.985-10S18.45,8,23.965,8s9.985,4.478,9.985,10S29.479,28,23.965,28z"/>
	</g>
</g>
<g id="Tape_1_">
	<g>
		<path style="fill:#FFCC66;" d="M63.284,13.93L27.272,0.066c-0.522-0.202-1.102,0.083-1.292,0.638
			c-0.19,0.553,0.079,1.165,0.603,1.366l36.012,13.864c0.523,0.201,1.102-0.084,1.292-0.639
			C64.077,14.743,63.808,14.131,63.284,13.93z"/>
	</g>
</g>
<g id="Base_3_">
	<g>
		<path style="fill:#ED7261;" d="M59.912,14c0,0-3.298,12-13.979,12C35.25,26,20.028,10,9.984,10C-0.059,10,0,23.209,0,28
			s5.991,20.001,5.991,20.001s31.235,0,39.941,0C63.906,48.001,63.906,16,63.906,16L59.912,14z"/>
	</g>
</g>
<g id="Tape_Shade">
	<g>
		<path style="fill:#A14D42;" d="M33.318,21.397C31.926,25.239,28.282,28,23.965,28c-5.515,0-9.986-4.478-9.986-10
			c0-2.453,0.917-4.671,2.382-6.411C14.088,10.615,11.937,10,9.984,10c-0.818,0-1.548,0.116-2.238,0.28
			C6.633,12.622,5.991,15.233,5.991,18c0,9.941,8.047,18,17.974,18c7.485,0,13.897-4.585,16.601-11.102
			C38.238,24.065,35.803,22.831,33.318,21.397z"/>
	</g>
</g>
<g>
</g>
<g>
</g>
<g>
</g>
<g>
</g>
<g>
</g>
<g>
</g>
<g>
</g>
<g>
</g>
<g>
</g>
<g>
</g>
<g>
</g>
<g>
</g>
<g>
</g>
<g>
</g>
<g>
</g>
</svg>
