<?xml version="1.0" encoding="iso-8859-1"?>
<!-- Generator: Adobe Illustrator 16.0.0, SVG Export Plug-In . SVG Version: 6.00 Build 0)  -->
<!DOCTYPE svg PUBLIC "-//W3C//DTD SVG 1.1//EN" "http://www.w3.org/Graphics/SVG/1.1/DTD/svg11.dtd">
<svg version="1.1" id="Layer_1" xmlns="http://www.w3.org/2000/svg" xmlns:xlink="http://www.w3.org/1999/xlink" x="0px" y="0px"
	 width="64px" height="60px" viewBox="0 0 64 60" style="enable-background:new 0 0 64 60;" xml:space="preserve">
<g id="Line_3_">
	<g>
		<path style="fill:#CCCCCC;" d="M60,52H4c-2.21,0-4,1.79-4,4c0,2.209,1.79,4,4,4h56c2.209,0,4-1.791,4-4C64,53.79,62.209,52,60,52z
			"/>
	</g>
</g>
<g id="Line_4_">
	<g>
		<path style="fill:#4D4D4D;" d="M42,52H22c-2.21,0-4,1.79-4,4c0,2.209,1.79,4,4,4h20c2.209,0,4-1.791,4-4C46,53.79,44.209,52,42,52
			z"/>
	</g>
</g>
<g id="Leg_6_">
	<g>
		<rect x="28" y="43.999" style="fill:#808080;" width="8" height="8.001"/>
	</g>
</g>
<g id="Frame_25_">
	<g>
		<path style="fill:#9B7CAB;" d="M60,0H4C1.79,0,0,1.79,0,4v35.999c0,2.21,1.79,4,4,4h56c2.209,0,4-1.79,4-4V4
			C64,1.79,62.209,0,60,0z"/>
	</g>
</g>
<g id="VPN">
	<g>
		<path style="fill-rule:evenodd;clip-rule:evenodd;fill:#FFFFFF;" d="M52,13.998c-1.104,0-2,0.896-2,2v6.521l-6.242-7.455
			c-0.305-0.573-0.876-0.975-1.552-1.045c-0.052-0.007-0.104-0.013-0.156-0.016c-0.018,0-0.033-0.005-0.051-0.005
			c-0.021,0-0.04,0.005-0.06,0.006c-0.444,0.001-0.89,0.144-1.256,0.452c-0.53,0.446-0.763,1.111-0.684,1.752v11.791
			c0,1.104,0.896,1.999,2,1.999s2-0.896,2-1.999V21.48l6.246,7.46c0.304,0.563,0.866,0.96,1.531,1.035
			c0.061,0.009,0.122,0.016,0.183,0.019c0.014,0,0.027,0.004,0.041,0.004c0.016,0,0.031-0.004,0.048-0.005
			c0.447,0.001,0.897-0.141,1.267-0.451c0.527-0.443,0.761-1.105,0.686-1.743V15.998C54,14.894,53.104,13.998,52,13.998z
			 M22.574,14.127c-1.099-0.382-2.319,0.177-2.728,1.247L16,23.409l-3.847-8.035c-0.408-1.07-1.629-1.629-2.728-1.247
			c-1.099,0.383-1.658,1.561-1.25,2.63l5.684,11.868c0.336,0.882,1.225,1.406,2.141,1.354c0.917,0.053,1.805-0.472,2.141-1.354
			l5.684-11.868C24.232,15.688,23.673,14.51,22.574,14.127z M32,13.998c-0.011,0-0.022,0.002-0.034,0.002L28,13.998
			c-1.104,0-2,0.896-2,2v12.001c0,1.104,0.896,1.999,2,1.999s2-0.896,2-1.999V26h2v-0.002c3.313,0,6-2.686,6-6
			C38,16.685,35.313,13.998,32,13.998z M32,21.998V22l-2-0.002v-4L31.981,18c0.006,0,0.012-0.002,0.019-0.002c1.104,0,2,0.896,2,2
			S33.104,21.998,32,21.998z"/>
	</g>
</g>
<g>
</g>
<g>
</g>
<g>
</g>
<g>
</g>
<g>
</g>
<g>
</g>
<g>
</g>
<g>
</g>
<g>
</g>
<g>
</g>
<g>
</g>
<g>
</g>
<g>
</g>
<g>
</g>
<g>
</g>
</svg>
